<mxfile host="app.diagrams.net" modified="2020-03-24T04:57:46.839Z" agent="Mozilla/5.0 (Windows NT 10.0; Win64; x64) AppleWebKit/537.36 (KHTML, like Gecko) Chrome/78.0.3904.108 Safari/537.36" etag="FyO71CSmpJopmTerINWo" version="12.8.5" type="github">
  <diagram id="Fufv_7uzsuPaR0Qm3mlz" name="Page-1">
    <mxGraphModel dx="2310" dy="710" grid="1" gridSize="10" guides="1" tooltips="1" connect="1" arrows="1" fold="1" page="1" pageScale="1" pageWidth="827" pageHeight="1169" math="0" shadow="0">
      <root>
        <mxCell id="0" />
        <mxCell id="1" parent="0" />
        <mxCell id="oF_maslsvYXRV8D9qIhB-10" style="edgeStyle=none;rounded=0;orthogonalLoop=1;jettySize=auto;html=1;entryX=0;entryY=0.5;entryDx=0;entryDy=0;" parent="1" source="oF_maslsvYXRV8D9qIhB-3" target="oF_maslsvYXRV8D9qIhB-6" edge="1">
          <mxGeometry relative="1" as="geometry" />
        </mxCell>
        <mxCell id="0b-b1j-9iYhwmvgux54W-9" style="edgeStyle=none;rounded=0;orthogonalLoop=1;jettySize=auto;html=1;" edge="1" parent="1" source="oF_maslsvYXRV8D9qIhB-3" target="0b-b1j-9iYhwmvgux54W-4">
          <mxGeometry relative="1" as="geometry" />
        </mxCell>
        <mxCell id="oF_maslsvYXRV8D9qIhB-3" value="resData" style="rounded=1;whiteSpace=wrap;html=1;" parent="1" vertex="1">
          <mxGeometry x="180" y="220" width="120" height="60" as="geometry" />
        </mxCell>
        <mxCell id="oF_maslsvYXRV8D9qIhB-7" style="rounded=0;orthogonalLoop=1;jettySize=auto;html=1;" parent="1" source="oF_maslsvYXRV8D9qIhB-4" target="oF_maslsvYXRV8D9qIhB-6" edge="1">
          <mxGeometry relative="1" as="geometry" />
        </mxCell>
        <mxCell id="oF_maslsvYXRV8D9qIhB-4" value="instance.res&lt;br&gt;promise、fn..." style="rounded=1;whiteSpace=wrap;html=1;" parent="1" vertex="1">
          <mxGeometry x="240" y="370" width="120" height="60" as="geometry" />
        </mxCell>
        <mxCell id="oF_maslsvYXRV8D9qIhB-9" style="edgeStyle=none;rounded=0;orthogonalLoop=1;jettySize=auto;html=1;entryX=0.043;entryY=0.036;entryDx=0;entryDy=0;entryPerimeter=0;" parent="1" source="oF_maslsvYXRV8D9qIhB-5" target="oF_maslsvYXRV8D9qIhB-6" edge="1">
          <mxGeometry relative="1" as="geometry" />
        </mxCell>
        <mxCell id="oF_maslsvYXRV8D9qIhB-5" value="context" style="ellipse;whiteSpace=wrap;html=1;" parent="1" vertex="1">
          <mxGeometry x="170" y="10" width="120" height="80" as="geometry" />
        </mxCell>
        <mxCell id="oF_maslsvYXRV8D9qIhB-12" style="edgeStyle=none;rounded=0;orthogonalLoop=1;jettySize=auto;html=1;entryX=0;entryY=0.5;entryDx=0;entryDy=0;" parent="1" source="oF_maslsvYXRV8D9qIhB-6" target="oF_maslsvYXRV8D9qIhB-11" edge="1">
          <mxGeometry relative="1" as="geometry" />
        </mxCell>
        <mxCell id="oF_maslsvYXRV8D9qIhB-6" value="translator" style="triangle;whiteSpace=wrap;html=1;" parent="1" vertex="1">
          <mxGeometry x="420" y="280" width="60" height="80" as="geometry" />
        </mxCell>
        <mxCell id="0b-b1j-9iYhwmvgux54W-5" style="rounded=0;orthogonalLoop=1;jettySize=auto;html=1;" edge="1" parent="1" source="oF_maslsvYXRV8D9qIhB-11" target="0b-b1j-9iYhwmvgux54W-4">
          <mxGeometry relative="1" as="geometry" />
        </mxCell>
        <mxCell id="0b-b1j-9iYhwmvgux54W-11" style="edgeStyle=none;rounded=0;orthogonalLoop=1;jettySize=auto;html=1;" edge="1" parent="1" source="oF_maslsvYXRV8D9qIhB-11" target="0b-b1j-9iYhwmvgux54W-10">
          <mxGeometry relative="1" as="geometry" />
        </mxCell>
        <mxCell id="oF_maslsvYXRV8D9qIhB-11" value="realRes&lt;br&gt;json、string 、regEx" style="rounded=1;whiteSpace=wrap;html=1;" parent="1" vertex="1">
          <mxGeometry x="560" y="300" width="180" height="60" as="geometry" />
        </mxCell>
        <mxCell id="0b-b1j-9iYhwmvgux54W-6" style="edgeStyle=none;rounded=0;orthogonalLoop=1;jettySize=auto;html=1;" edge="1" parent="1" source="0b-b1j-9iYhwmvgux54W-4" target="oF_maslsvYXRV8D9qIhB-5">
          <mxGeometry relative="1" as="geometry" />
        </mxCell>
        <mxCell id="0b-b1j-9iYhwmvgux54W-4" value="res.feedContext.js" style="shape=image;html=1;verticalLabelPosition=bottom;labelBackgroundColor=#ffffff;verticalAlign=top;imageAspect=1;aspect=fixed;image=data:image/png,iVBORw0KGgoAAAANSUhEUgAAAgAAAAIACAYAAAD0eNT6AAAAGXRFWHRTb2Z0d2FyZQBBZG9iZSBJbWFnZVJlYWR5ccllPAAAJv1JREFUeNrs3b12HEd+N+D2awVvJuwVcDbbxEdQ5oyDzBmHmQ8SAldA4gpIXAHBKwCU0KEGV6Bh6EjgcbLZDrP3jQxdgT1FNCQQGsxnV3VV9fOcA2vPrgUOq6e7fvWvj24aAAAAAAAAAAAAAAAAAAAAAAAAAAAAAAAAAAAAAAAAAAAAAAAAAAAAAAAAAAAAAAAAAAAAAAAAAAAAAAAAAAAAAAAAAAAABuqfNAE5mEyODxb/GC9+ni9+Dtufgyf+328WP/PFz/XiZzqdfrzVggzsfhkt/jFa9r8t7oeZFkIAoIQHWej0Xy1+Tvb4NVeLnzNBgMo7/EkbkMcrwnFw294THxb3xFzrIQCQY8f/tn2YdSE89M4XD7wLrUtlnX4IyId7hONzQQABgBweagdtx/8m0h8xW/y8VA2g4HvkpO30xx3+2hAEVMkQAOh11H/ZPDF32aGwRuB08bC70eoUFIxDKH7drC7vb+vl4ufn9j/ftvfFVIsjAJDyAfeuHfmnEh52R0IABXT8MStit0sCxcXivjjT+vyzJiDBQ+4y4gPuKf938fPvf/vbv/z/v//9v4QAcrwv3rSj83Hk++Cxf13cF6PFfXHtKqgAQOzO/6Tnj3FmcSAZ3RNhQV+4Lw57+gj3VYGrxX1x6ooIAFBr53/vqrEIiv7viUnb+R/0+DFmzR9VByFgwEwBMITOv2lHW//2t7/9y3/+/e//9f9cIXq4J8L98B/N8rJ8SqP2n/MQBBb3xBfTZCoAUGvnv6waYG80qTv/y8w+1k3zxzTEjxbMCgBQ44NuVRC4ti2KyPdE6GR/zfxjztsQYIpMAICdHnTjxT9+KfCjh4ffT83dfKiqAF3eEwdt5z8q4OOG92q8dNUEANhllBM6/4PC/yqhGhC2R82EATq4L8I2v0lBH9mOGQGADh8Ao0LS/z5Cp9/3yuYYbtqfz/f/WYmULe790PH/XNjHDt/vH4VfAYDdb/z7Yz1fDaDzH6Kb9kEZ/vlbczeF8PXHg5MHz4BfC73/Q/XryFUUANjtxg+l8EOtMVjzBz9f7gOD97QP6jnwrkl79HXXwjsDrlxJAYDtbvzQ+Y+1BCvCweNpBVWDup4BYdT/j8L/GqHC9VdTXnX7ThN0euOPdf6sMWp/Jg++N/ehICw+nHroFu9tBX+HUMl8HyoBLqcKAJsFgNwPwKEMX3ciKMEWOwj4paK/kgOCKvZ/NEGnjP7ppB9Z/FwuOpN/tAcrYfTfl/cuqQoAm6X//9EKRBBGYGcWERr99+TId08FAOjH10OWwqEybSeD0X9Kly6tAMB6Fm8RdZDZBoFf2kNmyGv0X2s4G5mKqpMpgG4fArYAktK8uXu3+ycLBnu/92tfAGxboAoAKgDkNDJrO51XmqLXzv+gqX/3z/3ppggAPOGzJqjaTTvivmj/OdMkNGW97Gcfb9tDjqiEg4C6FTqEt5qhKvPFz4fm7lXBt0+MAMfN3UK9F40poCF6MaC/a9gW6JXBlbAGoOuhwOT4v5ty3op3/0IbndZy54tO/92W1/+gHRG+SDgy9PIW93xKtgWqAPCEcIrbSY9//k07ar2fjvjmRl134z56ffHPA3uwPQxGL3d5yLVVgqvw07bl6/b7cODWqLLzPxzgtQ1VgB9dfQGAP7tOHABCJ/Wp/efe76tvX0wzb99mNtTO/6iL40/btjxbtOV5c7eAyvRQfcYD/DsfLr7Tbxbf7wuXv2ymAOKMCv7RxHkP+H3J/muHH6sM145qfh3o5Qsj/2mkdg3fiVBV6fpV0aYA+rvX3w002NkWqALAE8Kisc7P0F7cbH9J9PmHevLXNFbn/6Ai8KOXRlXl+UD/3gdt8DnzFSiXbYBxXDWFngnQjmgOB3rdrtOkjI/hFates1pPRzhUb9pqIQIADx7wtyUm4/ZmHuo8dbhm04Tfkas2KFK2oXeA3hYoAPDEA76092hfDvqSpZ/PPGucHlkso9+vxt5LIQCwXKdl3pgv5Bh46T+4Tv0HtoHjxm1SrJEmUAUQAHjqAR8e7uddjtBjhICBl/6D25iL/9b45E4p1nNNcBeEvC1QAGB5CHjX8SgvRggY+vu+p4V/fiGiH6YA/uCMCwGAJ3S94ruzEKD0/9V1j3/2C7dHscaa4JsqgPYQAFhSBQgVgK53BewdApT+fzfr4w9tDwYyiiyQzm6p15pAAGB5CLiI0NHsGwIuXZmvp+j1tRL/pKu/g8uYnMrNslzkdcECAE8Kr9HsurPZKQQo/f+uz/nzV5q/yNH/QeMkxyebRxMIACyvAoTOP8YJcFuFAKX//kfP7TXoarQ0dxmTCpUzb3dczjSAAMCKEBBWnMd4i9Y2IUDp/w997cN/1eF3SgBIF9xOjHJXGjkgSQBg9QP7LFLHszYEKP1/O3Lucf6/q05E55+u8w/3jUNv0n23EQCqFWM9wMoQoPSfR+fZHp06EgCKo/S/GQskBQDWVAHCgzvWG+GeCgFK/9/qq/z/ooK/w9BG/+8albNNHbYLJREAWBECwnqA80i//psQ4AG21G999Scd/q4vLmP0zj90Zq8Frq2MNYEAwPoQEDrmWEfRfg0BSv9PSj7/35b/uxwd6ZDSBLaD9vtyrjk24j0JBfhOE2QhTAWMIo3QQ9l/romz6Tw7nR9dBMiZyxjd/ej/qvH65k2pNqoAsOFD/P58gFgPl5FWzmAY2f0BMoJdmmt235n9pEUQAIgRAm6aeIsCyaQ/6fj3Kf/HN350j1rcpgIgABAlBMRcFMifpS7ndr09ymuA03VkMx3bVgQlAYAdQsC7pvz305fS1slG0G0pWQWgXCNNgABACqce7tXp/HQ0CwDTBoB9X789uC+8I4EFAHZ6sMdeFEh6Xb8kReefXthK+71m2JhpAAGAHUNAqACcaYkqRkKjpvu542stm74KsPh5oxm2ai8EAHYMAVdNnDcHkjgDRPidKgAIAAgAlYeAWG8OJJ1XHf++25QLGGFHP2iCvDkJsAxHi59/NObUyhv63y2E6rr8b5dInGs1bu+x++v13ChWBUAAoO8qwO3i4RReH/yL1hj86D8w/99Nhx86qLCwb6yzisIugMyZAignBMwahwQV2c9E+J0zzbp35x+uy6/N3dHMOv+4IQsBgA5CwDsP/6IefocROpdpu02U/a5LeEmWKbX4BAABgA6FqQAdQBmU//Ok809HOwsAdFgFuG1DAPk7ifEV0Kx7jf7DNTE3nY62FgDoOATMGucDdNEZjCP+7kmE0Y/y/37XJFyPt1oCBIDShQWBc82QrRcRfqf30e8njP5HmiGpZ5pAAKD7KsBtY1dA1gPOjn/fbfu6aHb3WhMkJ3AJAEQKAVeqAHuJMj/ZzjN3Xf6/crn2uiYTnVE99xgCAHdUAXYXa4Wy8n9+XmmCfu6xdu0FAgCRqgAWhu3meYSRZnjYdV3+v3H2/17XZNTEOZAJVQABgN5daYL+H0xt5/8+wuf84FLtd2k0gQCAAFArh8Ps5qCro0rbzj+8q+Gk488YqjsW/+3nuSbolZ0AAgCxtOcCsJtxR7/nMtJIx97//YOZCoAKAAJA1YSA3ey9YG/RyVxG7GQs8tzPiSaoJmQjAPAEo8Rd++89pgEW/+6biJ3MbDH6n7tEe7H6P4ub7FgVQAAgos+aIO0osd1b/j7i5zL636/TCcFOx5MH10EAgCy93bYK8OCVsrHcWNuxfwbQBNmwEFMAgGz9vGXnH1b8xzzgxNY/nY4KAAIAG7HVZs8HVFjMt+7UskSd/7w94AkVgJruLycCCgBEMtIEeztZ/PwaFvYtmxJoF/zF7vwDc//79vwWneVorAny8p0mcHPxpyAVFva9X3Qiffz5Rv/uh1qFKRmHWqkA0PFoR6mzHkb/3XU2CGUIANV7oQmqYPSvs6mZdQACAB2P/keN086M/nl4T4T5fx2NYIYAUP/zThNU4cbo3z0xAKZmBAA6pPxfhzNN0JkfNEG27M4QAHBD8cDMqX+dUv7P11gTCAB0oF1Q42FXvlNNoJMZ0HPLoEUAwOifhStv/NO5eG4hAMCwhFc4m/s3+h+akSYQAGDozhej/1vN0CmrzF0jBID6WThWtHDoz4Vm6JzysgoAAsBg3GiCIln417H2UCydiwCAADAY3htfnqnqjdH/wMOaayUAsH9P8vX0OJ1JOW6N/qMxt1wO25cFADrysjEVUAoL/1QAcK0EADqrAoQO5UgIyN6NhX9RjTWBCgACwJBDwJXWyJbSfyTmlEEAGHwIWPyETsbhMvkJpX8VmngEABAAaMvMPzZ3C87o33zxo/QflzcAggBAGwJu2hBg1Nm/Uwv/VABAACBlCAgjz6N2BEo/Luz5T2KsCUAA4NsQEEaeYZugEWh6IXida4a4LAAEAYCnQ0CYBrAwMD2l/zRGmgAEAJ4OAVeNqYCUlP7TUQEAAYB1OUATJBEO/FFxSccRwCAAsMa1JkjCgT9pjTQBCACsZj46vjMH/qQzmRwfCAAgALCGjim6mbP+kzP/DwIA9Op+uyUCAAgAMCAvbfnrxTNNAAIAa0wmx2OtEMW5LX8qACAAwLCEef93mkEAAAGAnB1ogk6Fkr8tfz1pdwD4ToMAgNFScqftC5fwfQYBgKxZMNWdcNSvkxX7NdIEIABgxJSSo34FABAAKEM7XyoA7M9+/3z8oAmK5f0NAgAJjTVBJ8z758MCQBAAkLiTMO+fFxWtco00gQBAOhNNsBfz/ioACAACAIX1/JPjQzfcXsK8/5FmyOo77fsMAgAbeKUJ9uKcfyNIEAAobqQUyqQnWmJnzvmHOM8mazgEAGLfZ4250l055z9fY01QPM8lAYDI3mqCndjvD3GNNIEAQKyh/+R44ibb2ZF5fxAABABK9VoT7ORs0fnfaIasOdcCBACeGP2PG/Oku5guOv8LzQBCnABAqcz9b2+++DnVDIAAgNH/cHxd9GfeHxAAMPofFvP+ZelyC5nQV/41RADA6H8nV4vO/0ozFKWrQ2Rs9yz/GiIAYPS/k/CSH/P+wzVtT3pUBUAAwOh/QIz++HIfBDQFAgBG/8Nxuhj9zTUDC9eaAAGAUkf/J0b/W7lYdP5GfdwN/+++C6YB0j+3PLMEAIz+kwov+TnTDDzOAZoAAYDSUvSbxrnam5o35v1ZzjQAAgBFdf4HRv8bc9gPTw//TQP0YawJBAB2Fzp/B2ps1vkfOeynquvZhe8f5wBNiwBACaP/cJDGGy2xESf91aWra/n4MBrTAGk90wQCALt5rwk2cuqkPzZhGiC5kSYQANh+9D9pzJ/p/NnXsukz0wD9tj8CACs6/wOjf50/nVh2Hr1pgH7bHwGAFcLCv5Fm0PnTWaD+Y/hvGiB1+3uWCQBseLNY+Kfz5+48h5ijUNMAqgACANm51AQrebXvMHyJ3AGZBhAABACyGv2/cbOsHRU64lcFYFs//Gn4bxogpeeaQABgdec/apz4t86pU/4EgA5HoKYB0hhrAgGA1ULp35aZp4UX/Mw0wzB0fK2fCgCmAdINcFQ2BQCeuDneSMlrnWuCwbnp8B5b1gEJlOkIAAIASx5Mo0bp3+ifqAFgWQfUTieZBkjDOgABgCXCgT9K/6v9pAkGqcudAKMn/nvTAGmMNYEAwLej/3Dc70RLrDXXBIM0SzACnWnmJEaPD2RCABhy5++4X1ityymApRWA6fTjvOM/B1UAAYC13jSO+4UntXP085gBQBUgKesABADahX+vtcTGrCAernmH991TI1DrANzHAgDJhFX/5sM2p62G61Ps75EdJu5jAYCUo/8TLQEbiboV8AEhQAVAACDJ6B9IHwBy+HNAADD6B9ZpV+mneP/Db1obAQCjfxhmFQAEAKKM/sMCGIf+gAAw5OegdQACwCCdNFbBwi4+a4JqeAYKAINk3z+oAIAAMCTtASQjLQHbm04/CgAgABTrlSYAVQAQAIY1+g9zXidaAgQAHAYkAAyLzh/2F3sh4A+aOAmLAAWAQbH4D/KvAOiYEADoTrvndaQlIPsAMNbECAB0yeI/6MB0+jEcBzzXEiAAFFME0ASQdxWg3aZLGtZaCAAD6PmV/7t0qwlonAhYA2stBIBBUP7PfORHcWY6JRAASjDWBNCpeaTfa286AgDdmEyORx4q0K3p9GMIAKaDQADIms4f4ogxHfS9ZvVsFADwJc/TXBPQ+uR+LZr1FgJA9Z5rgu60pV8QBkEAyN5IE0AUMaYAjEoRABAAIGfT6ccYAcAUAAIA+2t3ANCdmSago++Eqbk8npEClwBg9A/sZN5hZ6T8n542FwBgI/Z981iXRwIbjSIAoAIwgIc9ddh1HcBY0yEAIABAoabTj7MOf51yNAIAZGqmCVhi3tHvMQWQnjYXAAB2ttM0wGRyPNZ0vVN1EQAg3oOe6u26NuTx6NN7ABAAIEfT6Ue7AFhmtuO/93xNIAABADIw1wQ8YdfKkA4fAQAEAErVVoZ2qQ6NHh3+M9Kayf2gCQQAiDXKw/djlbEA0CuLAAUAWOs3TcAKn3b897wTAAEAVAAY4Pdj8vX/2BKIAADZsgOAVeY7/nujtvMfaUIEAMhQx0e+Ut/3Y58K0c+Ln9dasRd2YggAYPTP3nYNiQc6ot5YBCgAwErm/9nET5oABADqMtcErDOdfrxqVItAAKAqXzQBG5ppAhAA8FBneD5rgrJMJsfWXwgA8CRlXaiXhYACACy35xYvAAFAE1AgnT/bmGuC4ow1gQAAHujsa9qYMiqN9zEIALCURV1s3vvfvRr4VEsUZaQJBABYZqYJ2DIEhCrAlZYQABAAKNtcE7BDCAhVAOtHCjGZHNsJIADAN24XD3IBgF0dNdYDlMJZAAIAfMMIjn2qANYDgACAAMBAQ0BYD3ChJbI31gQCADxkBwBdhIAzYTJ732sCAQBUAIghTAVYD5AvawAEAPhm5CYA0OV36UxLCAACAKnMNIG2I5sQcNXcnRRIfmwDFADgd0b/xBCmAuaaIT/OAhAAamPOcXcWABKjChDOlvhrc3dGgN0BeTENIABU9bAxit3dTBMQ8d4M369rLZGVsSYQAGojBGzPCYAwPN4KKABUR0cmNAEqAALAAJnL3t4nTQDDM5kcCwECgNHswM00AYAAIAAMTLtACxgeO6cEgKo6s7lWEJjIkn3neZnbOSUA1MiIVluRH/vO8/JBEwgARrXDZgEgDM/pYvTvYCYBoEpfNIEKAPBk53+lGQQAFYBhC3OAFgGRinfQ9+tW5y8AVM+qdqN/smQNQL+d/5HOXwAYzOhWE6xl/h/Wd5y1dP4qowLAYPiyqwDAvqY6fwQAo9vqApIzE2CtkhcU6/wFAKNbtA9ZGGuCpPe3zl8AGKb2i2+F+9NUSGC90jrQ+45f59+z7zRBFjfDRDOoAMCO90hJg4irRad/6rKpAGCUu3JUY/8/VMcBaAIARrlrXWsCWCuE5LlmQAAokHUAghHs4XNhO2U86wQAHucATfDtQ8JJiVAli/4EAB6xDsDoH3SoCAA6vMEz/w+buS3pGaKyJwDw55ti3ljIIxCBCgACwDBzgCa4e6A5/hc2HjyUtKhOsBcAeIJ1AHeU/2Ezc58XAaAO0nE7qNEEuA+r7FA/+3oJACzr9e5KeUMPAbfOBodqA4B7WwBghaFPAxj9w+aKOlbXDgABAB3gKub/oc4RtdG/AMCahDz0Y4GNEGBzdgAgAKgC1NH5e/sfGShpGu5GuyIAeADVQPkfthkpOAMAAaC+kfBQn2cuPVT5nFDdEwDYMNXPm+EtmJk7/Y9MlHLvldShqu4JAKgCGP2jY+1ISYfqzHytBAAkZn9f6Ma8lM/pcC8BgG2Gw3cHZgxlzuzWASFkdu+VGAAOcm1S3yoBgO0NpVP0gIDtPR5VH2b6OVX3BADcOE+yP5jcO9f8UnMZq+pV9wQAVABUAChKUdNvk8mx8j8CQFW94jC2A9ofTI7mhX1e5X8EAFWA4nhAkKMvmmD/ELUI9yoAAgB7+Knyv58HBDm6KezzHbq3EQBq6x3rfjug0//I1W1hny/HNQA/+RoJAEjSRgiUFrxnhX3kHzIM9w7/EQDoQK3b5Mz/k7N5QZ91lNnn+eDrIwBgpPwU+4MRALqT2xqAK18fAYAuev+7bXK1ldOU/8ldEZW3yeQ4t9H/la29AgDdqq1c7vQ/VAC6+Wy5BQBTewIARswqABQt56rbw3MKxjkFE3v/BQC67i3r2g44VSKkkHuuBM8EewQAVYBSKP9TilkBn3GU0Wex+l8AQMdplEAVSqgC5LIDYOZgLwEAHefKB6qHBAX5nOnnmj34z7mcAujkPwGAaL1/HdsBzf1TklnOH24yOR73Hegf3NcqewIAQ34gbWDsElJQ6J4LrSuNfm8qC3sFAKKzxxaE7ttHHXBvGan9p8V/AgAJRiQzIxJI6lOGz4GbTALASXO3rseLfwQABjwigVrp3FYz+hcAGPKIZAtzl4+SZP7Sqr4PAbL4TwAg9TNJAICkcg0Bo57/fC/+EQBIPCKZF9yROgUQ39t6wojyvwCAEcnGzKfifqukTRzqJQBgRLKpW28Ko0SZrwPoi5P/BACMSDZ/jrpsuOeqEF77e6UZBAD6GZHMm/LK6Q4xomTWrxj9CwAYkew4YlABwP22v4fBf9zTZ7jwdRAAMCLZlNXCFC2jdQC/9d4Utv4JAGQ1EshZeFhcuVyoAlRB+V8AIIMRybwp4zwAIwZqMfR1AHbyCACoAmzF4j+qyd0D//vPfAUEAPLx2YgBEvX+d2+9G3I1S5gXAJDIjZhwz/m7IwCAEQO+07WbO/pXACCn4XX+R5QaMWAUXAfv8RAAcGNu/rms/qfC0B1GwbmMhFN+js+uvgCAAJDjwwmS5oBMPses0j8LAYDCk7kRA7X6NMDPoZonAKACoALAwIf/+WxtnSX8O1sDIACQ4cNolulHEwCo+tbL4N6fu88QAJDOIa1PA7r3Zy63AIAAAGRSAWhZa4MAMHAeApCy978rv+cQvI3OEQBUAIABdr7ufQSAgY9GjAIgvZ8yuPfD9ry5S4EAoAoApOt8bzLpfN37CAADpwoA9d93z5b8d9YAIQAMnIcApPcl8Z83WhFCnNaHADBQyoBQv9sV9/480p95qNkFADKW4VGdY1cFOvd5yb1/2waDWB31wWRyPNH0AgB5m2X0WZ65HAxALt/z2AOAFy61AEDecqoCKBsyBIeZ3OOxjyZWARAAyFxOCwEPJ5PjA5eEWi2+36MeAsB8y/++K2Ea4MRVFwBQAVAFgKZJ3SHerljrM0/w5z93yQUAMmUhICQb/Yfq1uvUt/iKe3+W4q/tygsA5G2W0WcxYqBWl4uf1FNc12v+99hVgDANINQLAGTMQkCIO/p/08NoOJT/172CeJ7gcwgAAgAZ+5TRZzloF0pBLZ3/yeIf73v4oz9kcu+r6gkAqACoAjDIzv+yhz86HPJzseH/X/QKgN09AgCZmk4/zpu8zgQXAND57+e8Pe0vl/A/9o0QAFAF2MQPLgc6/93v5UXnf5FZkzgVUAAgYzmtA1ABQOe/u7MMg7/tgAIAKgAbGZkzpNDO/7Lnzv9im/39G04TdMHLgQQABABVAKru/E96/AihMz/PuIlMAwgA5MhCQCi68w9OdxzRmwZAAMBCQCi0859ucOjPqspBCqYBBAAyZiEglNf5hw78tJAmMw0gAKACIACg8+/IecLFfPsa++YIAAgAmzxgPSzQ+a+5ZzvY8z9P+HlHjvoWAMhQuxBwntFHUgUgx87/TSadf3DWwe/4ogqAAEBuVQALAcmt8w+h9H0mH+dqmz3/GfFyIAGATH1WAYAnXWbwGcKoP/c9/+5rAYAC5TSi8KAgp9H/SSbfyVCB+NBO2QkACAB0xkJAWO5tJp8jdPwXLgcCAJ1qtxPlNLIwWiCHIBoOsBll8nFK2vaHAIAqwM68FIgcvMrkc8wWnf9VBYFq5CslAJCnnBYC2glADp1VLkfYnlXSrAKAAECmZioA8Ltc5v5D6f/G5UAAICYPGbgb/R9kMvqfNxb+IQAQW7vASAiApgmn/uVQhTq18A8BgKFVAewCoM/R/+ssMnmZJ/4hAFCoXBYCWgPAkEf/YdR/5lIgADDECgD0JYetf+cJTvybu9QIAPxOyZEha4/9HfX8MWYdvOpXAEAAQBUAttD31r9Q+j91GRAAGHQA8D4ABjj6P0/1sh/VPgQAlvmsCRigvuf+U5X+H7LFEAGA/CoAkHD0P178Y9zjR+ir9H9T+Z+HAMA2lAYZoL7n/s9Slf4f+ZT42aLiIACgCgBG/62rHt/0N/cNQADgsRyqACOXgQT6nPsP8/6nA7/PEQDITA4LAQUAYo/+w3fspKc/PlTZXvb592+nHVJVAea+cQIAZTAFwBD0Nfcf5sJfZjInnupeFwAEAErg/eMY/Uft/I96WvS3zCffBgQAHptpAip20tOfe5pZwE51nxtUCAAUxA1LraP/vl75Gzr/aU5t0YaRFFMRv/nmCQCUQ2mQWvXxyt8+t/vlUAWY+9oJAJRjpgkw+u+s88/5JT8pwr4AIABQinaFcp837TNXgRgZIPHoP5TYz4R9AUAAQBVgcyPNTwQpt/6FTu8o9yNwU6wDyGjXAwIAG7IOgHqG/mlf+ZvTXv+N+mijfwQAcqkAQMmj/5eFnacRM+wLAAIApUl8VCjEHP2PE47+Twt8q2bMCoBKogBAoZwHgNH/5s4z3u63KuzfRrzXDSIEAAolvVPD6H+c4I8K2/3eFdxU1wIAAgDfDA40AUb/a91kvte/z3tdFVEAoMgngnUAlD36HyUY/YcO7qiCe/0mxr1e0E4IBACWmGkCjP6XCp3baUWdXNf3utG/AEDhrAOg1NH/SeTO/6iy12dfR2gjBACMCqCq0f9ZZZ1/E+FthSoAAgCFPxTmjXUAlDX6D+f9TyJ3/le13vId/i6vARYA8FCApGK+8jds97uouO2ufX0QAHjIOgBKGv3HeuXvtILtfuvMMv1dCABU8FCAEkf/YT679s7/fsrP3D0CAL8/FG6FAArxKsLvvF/xP5RV7e51BAC+YW6QrEV65e/QOv8u73WVBAEAowJIIsbWv9Patvut09XbDJ0CKABQz0MhylGhkPHo/zTC3vhibnnfKgQAVAEoQddz/xcV7/XfhJ0/CAB8wzoAchz9j5tuX/oT9vqfCfsgAOChQN66nPsPU11D7/zvp/zM4SMA8PtDITwQzA1S6+j/66t9LV7745bf49/VhgIAFTI3SE66mvuv7dW+fd/rtgAKABgVQLTR/6jp7pW/R0Pb7udeRwBguyeCo0LJR1ed/6nOf+m9futeRwDgsZ80ARnoovx/PvDtfuvMNIEAAB4KZGMyOb5s9j/4J2z3e6c1V/qsCQQA+J1TAcmg8z/Z+2tc/6t9u+A+FwDgzw9QTUAPnf9JB51/6NR0/puxBkAAgD+JeSrggeZlSec/XvzjsoNfZbvfpilfOwkAmoAlD4ZZE++wj0MtzKPOP3wnfu7gV826etsdCAAMmQcpqTr/X5puKkPnWjQJVTwBgMo5FZCSOv+50X8yqngCACoAkEXnH1i4mv76IQBQI28Mo6DOP1CxSmusCQQAVAF26QBGmlbn33FgVQFI67kmEACoW6xRlQCg8++0/9e6KgAIAHTLQSHk3vkH11o4uQPrAAQAKmZVNR11/qOInf+tF/70FwI0gQCAKsC2Rpp1MJ1/6CR+jthZKP+DAIAAQIbeN3H3jTv8BwQAIvHKUHYd/Z80+7/cZ+Xofzr9ONfSIABQTgXge806iM7/MvIfY/S/3zUaawUBAFIHAKuHdf77umgPqwIEAGJoXxnqREBy6vxvjf5BAKDMKsBIk1bZ+b9P0PkHZ95ln4WxJijbd5qADcwFAFZ0/Adtxz9J8MfN7PsHAYB0vmgCVnT+4ZCfVOs6TrU6dMMUAJvovNxqBXIVnf8oced/btsfqACQltXWPO78Y57tv8x80fm/0/Kd2jeEeyOgCgDsxFZAnf82lP5BACC1SC8F8iKRMjv/2Gf7L3PhxVRZGmsCAQB28UwTFNn5h5H/KOEfO2/s+c/5OzHRCgIAbGukCYoT+8U+y5za85816wAEAAZgLgAMeqR30sR9sc8ySv8FfDU0gQCAACAA1Nv5H7aj/5RuFp3/mdaPqouXco3a7wcCAGzdsZD3Nbo/5S/1ok2r/uPr6v57rSkFANiWnQD562Pe/8yb/srKiZpAAIBtjTVB1qP/kyb9vH846/9C65cV5O0GEABgW99rgmw7/1GTft4/rPZ/qfWL9EITCACwDWsA8pX6sJ/Alr9ynbTrRRAAQAAoePT/podrE7b8TbV+2V8dTSAAwKYOjBqy9Dbxn2fLXx1eaQIBgDqNVAEGMfo/adKW/s3712Pcrh1BAKCiTmEUMQCMtXBWUi/mClv+5pq9GieaQACgsgxQUYdDf9f6satF53+lyavi3QACAG7qjR1aB5BJzz85Hif848JBP+b9QQBg4KNCq4eH5eu8vy1/IABgVGgaIA+pKgCn5v1BACB/KTrnidXDg2G/f90EOwEAo8LtQ4Cm7l3sF/DY71+/L5pAAKAC7ag81T59rxTtX8w5+RAujjQxCAAY/T828kaxfi1G57OYnb9Ff4PgNc4CAJVIvadXFSCDHNDx75vp/AdlrgkEAOqQekQ+TrwXnT+77vB3hYN+dP5DSo/TjyoAAgDF9/yT4zD338cBPW+1fq8P8KuORnFhq9+pFs3aTea/DwGAgYz+VQHysU/HHcLDj474LcJvHf++mSYVAKhDn2d6WwvQbxUgPMh32a531Xb+RoJl6LrD/qRJy/JPmoA/Df3vzub/754/xl/MHff+PThZ/ONyw1H/mQN+irzG/+OeVQGAb54LPgNtGf+v7ch+2YM9/Hfn7ahf51/oZe7s66LzL853moAlXmXwGV60HQ/9hoAwug9rAk7bg6FGD/7nGw/94l13FLavNWV5TAHw7bD77jCenzP4KLeLzuUvrghEv+fDdN8+O35CCPyrMFgeUwA8fBCErX+XmXycg/bzAHF92PPfP9f5CwCU3fmfLP7xS9PP3v+njFwZiGvReb9rdt/DHw57utCKZbIGQMf/prnbdpdjZxsqABaXQXzhRU1h6m+8xb9z4e2OAgBldvyH7Q2f8yj7mSsFSaoAoYR/1FYC3655LoRQ/iHiy6NIxCLA4Xb+uZX7l5mFs+RdMUj+jBi1IeD+Z9YGBZ2+CgCF39gldP5AfxWBeePNftWzCHB4ftb5A6ACMDwlLdqxtQgAAAAAAAAAAAAAAAAAAAAAAAAAAAAAAAAAAAAAAAAAAAAAAAAAAAAAAAAAAAAA+F8BBgAtI2C9XNe5LQAAAABJRU5ErkJggg==;" vertex="1" parent="1">
          <mxGeometry x="790" y="90" width="91" height="91" as="geometry" />
        </mxCell>
        <mxCell id="0b-b1j-9iYhwmvgux54W-13" style="edgeStyle=none;rounded=0;orthogonalLoop=1;jettySize=auto;html=1;" edge="1" parent="1" source="0b-b1j-9iYhwmvgux54W-10" target="0b-b1j-9iYhwmvgux54W-12">
          <mxGeometry relative="1" as="geometry" />
        </mxCell>
        <mxCell id="0b-b1j-9iYhwmvgux54W-10" value="res.check.js" style="shape=image;html=1;verticalLabelPosition=bottom;labelBackgroundColor=#ffffff;verticalAlign=top;imageAspect=1;aspect=fixed;image=data:image/png,iVBORw0KGgoAAAANSUhEUgAAAgAAAAIACAYAAAD0eNT6AAAAGXRFWHRTb2Z0d2FyZQBBZG9iZSBJbWFnZVJlYWR5ccllPAAAJv1JREFUeNrs3b12HEd+N+D2awVvJuwVcDbbxEdQ5oyDzBmHmQ8SAldA4gpIXAHBKwCU0KEGV6Bh6EjgcbLZDrP3jQxdgT1FNCQQGsxnV3VV9fOcA2vPrgUOq6e7fvWvj24aAAAAAAAAAAAAAAAAAAAAAAAAAAAAAAAAAAAAAAAAAAAAAAAAAAAAAAAAAAAAAAAAAAAAAAAAAAAAAAAAAAAAAAAAAAAABuqfNAE5mEyODxb/GC9+ni9+Dtufgyf+328WP/PFz/XiZzqdfrzVggzsfhkt/jFa9r8t7oeZFkIAoIQHWej0Xy1+Tvb4NVeLnzNBgMo7/EkbkMcrwnFw294THxb3xFzrIQCQY8f/tn2YdSE89M4XD7wLrUtlnX4IyId7hONzQQABgBweagdtx/8m0h8xW/y8VA2g4HvkpO30xx3+2hAEVMkQAOh11H/ZPDF32aGwRuB08bC70eoUFIxDKH7drC7vb+vl4ufn9j/ftvfFVIsjAJDyAfeuHfmnEh52R0IABXT8MStit0sCxcXivjjT+vyzJiDBQ+4y4gPuKf938fPvf/vbv/z/v//9v4QAcrwv3rSj83Hk++Cxf13cF6PFfXHtKqgAQOzO/6Tnj3FmcSAZ3RNhQV+4Lw57+gj3VYGrxX1x6ooIAFBr53/vqrEIiv7viUnb+R/0+DFmzR9VByFgwEwBMITOv2lHW//2t7/9y3/+/e//9f9cIXq4J8L98B/N8rJ8SqP2n/MQBBb3xBfTZCoAUGvnv6waYG80qTv/y8w+1k3zxzTEjxbMCgBQ44NuVRC4ti2KyPdE6GR/zfxjztsQYIpMAICdHnTjxT9+KfCjh4ffT83dfKiqAF3eEwdt5z8q4OOG92q8dNUEANhllBM6/4PC/yqhGhC2R82EATq4L8I2v0lBH9mOGQGADh8Ao0LS/z5Cp9/3yuYYbtqfz/f/WYmULe790PH/XNjHDt/vH4VfAYDdb/z7Yz1fDaDzH6Kb9kEZ/vlbczeF8PXHg5MHz4BfC73/Q/XryFUUANjtxg+l8EOtMVjzBz9f7gOD97QP6jnwrkl79HXXwjsDrlxJAYDtbvzQ+Y+1BCvCweNpBVWDup4BYdT/j8L/GqHC9VdTXnX7ThN0euOPdf6sMWp/Jg++N/ehICw+nHroFu9tBX+HUMl8HyoBLqcKAJsFgNwPwKEMX3ciKMEWOwj4paK/kgOCKvZ/NEGnjP7ppB9Z/FwuOpN/tAcrYfTfl/cuqQoAm6X//9EKRBBGYGcWERr99+TId08FAOjH10OWwqEybSeD0X9Kly6tAMB6Fm8RdZDZBoFf2kNmyGv0X2s4G5mKqpMpgG4fArYAktK8uXu3+ycLBnu/92tfAGxboAoAKgDkNDJrO51XmqLXzv+gqX/3z/3ppggAPOGzJqjaTTvivmj/OdMkNGW97Gcfb9tDjqiEg4C6FTqEt5qhKvPFz4fm7lXBt0+MAMfN3UK9F40poCF6MaC/a9gW6JXBlbAGoOuhwOT4v5ty3op3/0IbndZy54tO/92W1/+gHRG+SDgy9PIW93xKtgWqAPCEcIrbSY9//k07ar2fjvjmRl134z56ffHPA3uwPQxGL3d5yLVVgqvw07bl6/b7cODWqLLzPxzgtQ1VgB9dfQGAP7tOHABCJ/Wp/efe76tvX0wzb99mNtTO/6iL40/btjxbtOV5c7eAyvRQfcYD/DsfLr7Tbxbf7wuXv2ymAOKMCv7RxHkP+H3J/muHH6sM145qfh3o5Qsj/2mkdg3fiVBV6fpV0aYA+rvX3w002NkWqALAE8Kisc7P0F7cbH9J9PmHevLXNFbn/6Ai8KOXRlXl+UD/3gdt8DnzFSiXbYBxXDWFngnQjmgOB3rdrtOkjI/hFates1pPRzhUb9pqIQIADx7wtyUm4/ZmHuo8dbhm04Tfkas2KFK2oXeA3hYoAPDEA76092hfDvqSpZ/PPGucHlkso9+vxt5LIQCwXKdl3pgv5Bh46T+4Tv0HtoHjxm1SrJEmUAUQAHjqAR8e7uddjtBjhICBl/6D25iL/9b45E4p1nNNcBeEvC1QAGB5CHjX8SgvRggY+vu+p4V/fiGiH6YA/uCMCwGAJ3S94ruzEKD0/9V1j3/2C7dHscaa4JsqgPYQAFhSBQgVgK53BewdApT+fzfr4w9tDwYyiiyQzm6p15pAAGB5CLiI0NHsGwIuXZmvp+j1tRL/pKu/g8uYnMrNslzkdcECAE8Kr9HsurPZKQQo/f+uz/nzV5q/yNH/QeMkxyebRxMIACyvAoTOP8YJcFuFAKX//kfP7TXoarQ0dxmTCpUzb3dczjSAAMCKEBBWnMd4i9Y2IUDp/w997cN/1eF3SgBIF9xOjHJXGjkgSQBg9QP7LFLHszYEKP1/O3Lucf6/q05E55+u8w/3jUNv0n23EQCqFWM9wMoQoPSfR+fZHp06EgCKo/S/GQskBQDWVAHCgzvWG+GeCgFK/9/qq/z/ooK/w9BG/+8albNNHbYLJREAWBECwnqA80i//psQ4AG21G999Scd/q4vLmP0zj90Zq8Frq2MNYEAwPoQEDrmWEfRfg0BSv9PSj7/35b/uxwd6ZDSBLaD9vtyrjk24j0JBfhOE2QhTAWMIo3QQ9l/romz6Tw7nR9dBMiZyxjd/ej/qvH65k2pNqoAsOFD/P58gFgPl5FWzmAY2f0BMoJdmmt235n9pEUQAIgRAm6aeIsCyaQ/6fj3Kf/HN350j1rcpgIgABAlBMRcFMifpS7ndr09ymuA03VkMx3bVgQlAYAdQsC7pvz305fS1slG0G0pWQWgXCNNgABACqce7tXp/HQ0CwDTBoB9X789uC+8I4EFAHZ6sMdeFEh6Xb8kReefXthK+71m2JhpAAGAHUNAqACcaYkqRkKjpvu542stm74KsPh5oxm2ai8EAHYMAVdNnDcHkjgDRPidKgAIAAgAlYeAWG8OJJ1XHf++25QLGGFHP2iCvDkJsAxHi59/NObUyhv63y2E6rr8b5dInGs1bu+x++v13ChWBUAAoO8qwO3i4RReH/yL1hj86D8w/99Nhx86qLCwb6yzisIugMyZAignBMwahwQV2c9E+J0zzbp35x+uy6/N3dHMOv+4IQsBgA5CwDsP/6IefocROpdpu02U/a5LeEmWKbX4BAABgA6FqQAdQBmU//Ok809HOwsAdFgFuG1DAPk7ifEV0Kx7jf7DNTE3nY62FgDoOATMGucDdNEZjCP+7kmE0Y/y/37XJFyPt1oCBIDShQWBc82QrRcRfqf30e8njP5HmiGpZ5pAAKD7KsBtY1dA1gPOjn/fbfu6aHb3WhMkJ3AJAEQKAVeqAHuJMj/ZzjN3Xf6/crn2uiYTnVE99xgCAHdUAXYXa4Wy8n9+XmmCfu6xdu0FAgCRqgAWhu3meYSRZnjYdV3+v3H2/17XZNTEOZAJVQABgN5daYL+H0xt5/8+wuf84FLtd2k0gQCAAFArh8Ps5qCro0rbzj+8q+Gk488YqjsW/+3nuSbolZ0AAgCxtOcCsJtxR7/nMtJIx97//YOZCoAKAAJA1YSA3ey9YG/RyVxG7GQs8tzPiSaoJmQjAPAEo8Rd++89pgEW/+6biJ3MbDH6n7tEe7H6P4ub7FgVQAAgos+aIO0osd1b/j7i5zL636/TCcFOx5MH10EAgCy93bYK8OCVsrHcWNuxfwbQBNmwEFMAgGz9vGXnH1b8xzzgxNY/nY4KAAIAG7HVZs8HVFjMt+7UskSd/7w94AkVgJruLycCCgBEMtIEeztZ/PwaFvYtmxJoF/zF7vwDc//79vwWneVorAny8p0mcHPxpyAVFva9X3Qiffz5Rv/uh1qFKRmHWqkA0PFoR6mzHkb/3XU2CGUIANV7oQmqYPSvs6mZdQACAB2P/keN086M/nl4T4T5fx2NYIYAUP/zThNU4cbo3z0xAKZmBAA6pPxfhzNN0JkfNEG27M4QAHBD8cDMqX+dUv7P11gTCAB0oF1Q42FXvlNNoJMZ0HPLoEUAwOifhStv/NO5eG4hAMCwhFc4m/s3+h+akSYQAGDozhej/1vN0CmrzF0jBID6WThWtHDoz4Vm6JzysgoAAsBg3GiCIln417H2UCydiwCAADAY3htfnqnqjdH/wMOaayUAsH9P8vX0OJ1JOW6N/qMxt1wO25cFADrysjEVUAoL/1QAcK0EADqrAoQO5UgIyN6NhX9RjTWBCgACwJBDwJXWyJbSfyTmlEEAGHwIWPyETsbhMvkJpX8VmngEABAAaMvMPzZ3C87o33zxo/QflzcAggBAGwJu2hBg1Nm/Uwv/VABAACBlCAgjz6N2BEo/Luz5T2KsCUAA4NsQEEaeYZugEWh6IXida4a4LAAEAYCnQ0CYBrAwMD2l/zRGmgAEAJ4OAVeNqYCUlP7TUQEAAYB1OUATJBEO/FFxSccRwCAAsMa1JkjCgT9pjTQBCACsZj46vjMH/qQzmRwfCAAgALCGjim6mbP+kzP/DwIA9Op+uyUCAAgAMCAvbfnrxTNNAAIAa0wmx2OtEMW5LX8qACAAwLCEef93mkEAAAGAnB1ogk6Fkr8tfz1pdwD4ToMAgNFScqftC5fwfQYBgKxZMNWdcNSvkxX7NdIEIABgxJSSo34FABAAKEM7XyoA7M9+/3z8oAmK5f0NAgAJjTVBJ8z758MCQBAAkLiTMO+fFxWtco00gQBAOhNNsBfz/ioACAACAIX1/JPjQzfcXsK8/5FmyOo77fsMAgAbeKUJ9uKcfyNIEAAobqQUyqQnWmJnzvmHOM8mazgEAGLfZ4250l055z9fY01QPM8lAYDI3mqCndjvD3GNNIEAQKyh/+R44ibb2ZF5fxAABABK9VoT7ORs0fnfaIasOdcCBACeGP2PG/Oku5guOv8LzQBCnABAqcz9b2+++DnVDIAAgNH/cHxd9GfeHxAAMPofFvP+ZelyC5nQV/41RADA6H8nV4vO/0ozFKWrQ2Rs9yz/GiIAYPS/k/CSH/P+wzVtT3pUBUAAwOh/QIz++HIfBDQFAgBG/8Nxuhj9zTUDC9eaAAGAUkf/J0b/W7lYdP5GfdwN/+++C6YB0j+3PLMEAIz+kwov+TnTDDzOAZoAAYDSUvSbxrnam5o35v1ZzjQAAgBFdf4HRv8bc9gPTw//TQP0YawJBAB2Fzp/B2ps1vkfOeynquvZhe8f5wBNiwBACaP/cJDGGy2xESf91aWra/n4MBrTAGk90wQCALt5rwk2cuqkPzZhGiC5kSYQANh+9D9pzJ/p/NnXsukz0wD9tj8CACs6/wOjf50/nVh2Hr1pgH7bHwGAFcLCv5Fm0PnTWaD+Y/hvGiB1+3uWCQBseLNY+Kfz5+48h5ijUNMAqgACANm51AQrebXvMHyJ3AGZBhAABACyGv2/cbOsHRU64lcFYFs//Gn4bxogpeeaQABgdec/apz4t86pU/4EgA5HoKYB0hhrAgGA1ULp35aZp4UX/Mw0wzB0fK2fCgCmAdINcFQ2BQCeuDneSMlrnWuCwbnp8B5b1gEJlOkIAAIASx5Mo0bp3+ifqAFgWQfUTieZBkjDOgABgCXCgT9K/6v9pAkGqcudAKMn/nvTAGmMNYEAwLej/3Dc70RLrDXXBIM0SzACnWnmJEaPD2RCABhy5++4X1ityymApRWA6fTjvOM/B1UAAYC13jSO+4UntXP085gBQBUgKesABADahX+vtcTGrCAernmH991TI1DrANzHAgDJhFX/5sM2p62G61Ps75EdJu5jAYCUo/8TLQEbiboV8AEhQAVAACDJ6B9IHwBy+HNAADD6B9ZpV+mneP/Db1obAQCjfxhmFQAEAKKM/sMCGIf+gAAw5OegdQACwCCdNFbBwi4+a4JqeAYKAINk3z+oAIAAMCTtASQjLQHbm04/CgAgABTrlSYAVQAQAIY1+g9zXidaAgQAHAYkAAyLzh/2F3sh4A+aOAmLAAWAQbH4D/KvAOiYEADoTrvndaQlIPsAMNbECAB0yeI/6MB0+jEcBzzXEiAAFFME0ASQdxWg3aZLGtZaCAAD6PmV/7t0qwlonAhYA2stBIBBUP7PfORHcWY6JRAASjDWBNCpeaTfa286AgDdmEyORx4q0K3p9GMIAKaDQADIms4f4ogxHfS9ZvVsFADwJc/TXBPQ+uR+LZr1FgJA9Z5rgu60pV8QBkEAyN5IE0AUMaYAjEoRABAAIGfT6ccYAcAUAAIA+2t3ANCdmSago++Eqbk8npEClwBg9A/sZN5hZ6T8n542FwBgI/Z981iXRwIbjSIAoAIwgIc9ddh1HcBY0yEAIABAoabTj7MOf51yNAIAZGqmCVhi3tHvMQWQnjYXAAB2ttM0wGRyPNZ0vVN1EQAg3oOe6u26NuTx6NN7ABAAIEfT6Ue7AFhmtuO/93xNIAABADIw1wQ8YdfKkA4fAQAEAErVVoZ2qQ6NHh3+M9Kayf2gCQQAiDXKw/djlbEA0CuLAAUAWOs3TcAKn3b897wTAAEAVAAY4Pdj8vX/2BKIAADZsgOAVeY7/nujtvMfaUIEAMhQx0e+Ut/3Y58K0c+Ln9dasRd2YggAYPTP3nYNiQc6ot5YBCgAwErm/9nET5oABADqMtcErDOdfrxqVItAAKAqXzQBG5ppAhAA8FBneD5rgrJMJsfWXwgA8CRlXaiXhYACACy35xYvAAFAE1AgnT/bmGuC4ow1gQAAHujsa9qYMiqN9zEIALCURV1s3vvfvRr4VEsUZaQJBABYZqYJ2DIEhCrAlZYQABAAKNtcE7BDCAhVAOtHCjGZHNsJIADAN24XD3IBgF0dNdYDlMJZAAIAfMMIjn2qANYDgACAAMBAQ0BYD3ChJbI31gQCADxkBwBdhIAzYTJ732sCAQBUAIghTAVYD5AvawAEAPhm5CYA0OV36UxLCAACAKnMNIG2I5sQcNXcnRRIfmwDFADgd0b/xBCmAuaaIT/OAhAAamPOcXcWABKjChDOlvhrc3dGgN0BeTENIABU9bAxit3dTBMQ8d4M369rLZGVsSYQAGojBGzPCYAwPN4KKABUR0cmNAEqAALAAJnL3t4nTQDDM5kcCwECgNHswM00AYAAIAAMTLtACxgeO6cEgKo6s7lWEJjIkn3neZnbOSUA1MiIVluRH/vO8/JBEwgARrXDZgEgDM/pYvTvYCYBoEpfNIEKAPBk53+lGQQAFYBhC3OAFgGRinfQ9+tW5y8AVM+qdqN/smQNQL+d/5HOXwAYzOhWE6xl/h/Wd5y1dP4qowLAYPiyqwDAvqY6fwQAo9vqApIzE2CtkhcU6/wFAKNbtA9ZGGuCpPe3zl8AGKb2i2+F+9NUSGC90jrQ+45f59+z7zRBFjfDRDOoAMCO90hJg4irRad/6rKpAGCUu3JUY/8/VMcBaAIARrlrXWsCWCuE5LlmQAAokHUAghHs4XNhO2U86wQAHucATfDtQ8JJiVAli/4EAB6xDsDoH3SoCAA6vMEz/w+buS3pGaKyJwDw55ti3ljIIxCBCgACwDBzgCa4e6A5/hc2HjyUtKhOsBcAeIJ1AHeU/2Ezc58XAaAO0nE7qNEEuA+r7FA/+3oJACzr9e5KeUMPAbfOBodqA4B7WwBghaFPAxj9w+aKOlbXDgABAB3gKub/oc4RtdG/AMCahDz0Y4GNEGBzdgAgAKgC1NH5e/sfGShpGu5GuyIAeADVQPkfthkpOAMAAaC+kfBQn2cuPVT5nFDdEwDYMNXPm+EtmJk7/Y9MlHLvldShqu4JAKgCGP2jY+1ISYfqzHytBAAkZn9f6Ma8lM/pcC8BgG2Gw3cHZgxlzuzWASFkdu+VGAAOcm1S3yoBgO0NpVP0gIDtPR5VH2b6OVX3BADcOE+yP5jcO9f8UnMZq+pV9wQAVABUAChKUdNvk8mx8j8CQFW94jC2A9ofTI7mhX1e5X8EAFWA4nhAkKMvmmD/ELUI9yoAAgB7+Knyv58HBDm6KezzHbq3EQBq6x3rfjug0//I1W1hny/HNQA/+RoJAEjSRgiUFrxnhX3kHzIM9w7/EQDoQK3b5Mz/k7N5QZ91lNnn+eDrIwBgpPwU+4MRALqT2xqAK18fAYAuev+7bXK1ldOU/8ldEZW3yeQ4t9H/la29AgDdqq1c7vQ/VAC6+Wy5BQBTewIARswqABQt56rbw3MKxjkFE3v/BQC67i3r2g44VSKkkHuuBM8EewQAVYBSKP9TilkBn3GU0Wex+l8AQMdplEAVSqgC5LIDYOZgLwEAHefKB6qHBAX5nOnnmj34z7mcAujkPwGAaL1/HdsBzf1TklnOH24yOR73Hegf3NcqewIAQ34gbWDsElJQ6J4LrSuNfm8qC3sFAKKzxxaE7ttHHXBvGan9p8V/AgAJRiQzIxJI6lOGz4GbTALASXO3rseLfwQABjwigVrp3FYz+hcAGPKIZAtzl4+SZP7Sqr4PAbL4TwAg9TNJAICkcg0Bo57/fC/+EQBIPCKZF9yROgUQ39t6wojyvwCAEcnGzKfifqukTRzqJQBgRLKpW28Ko0SZrwPoi5P/BACMSDZ/jrpsuOeqEF77e6UZBAD6GZHMm/LK6Q4xomTWrxj9CwAYkew4YlABwP22v4fBf9zTZ7jwdRAAMCLZlNXCFC2jdQC/9d4Utv4JAGQ1EshZeFhcuVyoAlRB+V8AIIMRybwp4zwAIwZqMfR1AHbyCACoAmzF4j+qyd0D//vPfAUEAPLx2YgBEvX+d2+9G3I1S5gXAJDIjZhwz/m7IwCAEQO+07WbO/pXACCn4XX+R5QaMWAUXAfv8RAAcGNu/rms/qfC0B1GwbmMhFN+js+uvgCAAJDjwwmS5oBMPses0j8LAYDCk7kRA7X6NMDPoZonAKACoALAwIf/+WxtnSX8O1sDIACQ4cNolulHEwCo+tbL4N6fu88QAJDOIa1PA7r3Zy63AIAAAGRSAWhZa4MAMHAeApCy978rv+cQvI3OEQBUAIABdr7ufQSAgY9GjAIgvZ8yuPfD9ry5S4EAoAoApOt8bzLpfN37CAADpwoA9d93z5b8d9YAIQAMnIcApPcl8Z83WhFCnNaHADBQyoBQv9sV9/480p95qNkFADKW4VGdY1cFOvd5yb1/2waDWB31wWRyPNH0AgB5m2X0WZ65HAxALt/z2AOAFy61AEDecqoCKBsyBIeZ3OOxjyZWARAAyFxOCwEPJ5PjA5eEWi2+36MeAsB8y/++K2Ea4MRVFwBQAVAFgKZJ3SHerljrM0/w5z93yQUAMmUhICQb/Yfq1uvUt/iKe3+W4q/tygsA5G2W0WcxYqBWl4uf1FNc12v+99hVgDANINQLAGTMQkCIO/p/08NoOJT/172CeJ7gcwgAAgAZ+5TRZzloF0pBLZ3/yeIf73v4oz9kcu+r6gkAqACoAjDIzv+yhz86HPJzseH/X/QKgN09AgCZmk4/zpu8zgQXAND57+e8Pe0vl/A/9o0QAFAF2MQPLgc6/93v5UXnf5FZkzgVUAAgYzmtA1ABQOe/u7MMg7/tgAIAKgAbGZkzpNDO/7Lnzv9im/39G04TdMHLgQQABABVAKru/E96/AihMz/PuIlMAwgA5MhCQCi68w9OdxzRmwZAAMBCQCi0859ucOjPqspBCqYBBAAyZiEglNf5hw78tJAmMw0gAKACIACg8+/IecLFfPsa++YIAAgAmzxgPSzQ+a+5ZzvY8z9P+HlHjvoWAMhQuxBwntFHUgUgx87/TSadf3DWwe/4ogqAAEBuVQALAcmt8w+h9H0mH+dqmz3/GfFyIAGATH1WAYAnXWbwGcKoP/c9/+5rAYAC5TSi8KAgp9H/SSbfyVCB+NBO2QkACAB0xkJAWO5tJp8jdPwXLgcCAJ1qtxPlNLIwWiCHIBoOsBll8nFK2vaHAIAqwM68FIgcvMrkc8wWnf9VBYFq5CslAJCnnBYC2glADp1VLkfYnlXSrAKAAECmZioA8Ltc5v5D6f/G5UAAICYPGbgb/R9kMvqfNxb+IQAQW7vASAiApgmn/uVQhTq18A8BgKFVAewCoM/R/+ssMnmZJ/4hAFCoXBYCWgPAkEf/YdR/5lIgADDECgD0JYetf+cJTvybu9QIAPxOyZEha4/9HfX8MWYdvOpXAEAAQBUAttD31r9Q+j91GRAAGHQA8D4ABjj6P0/1sh/VPgQAlvmsCRigvuf+U5X+H7LFEAGA/CoAkHD0P178Y9zjR+ir9H9T+Z+HAMA2lAYZoL7n/s9Slf4f+ZT42aLiIACgCgBG/62rHt/0N/cNQADgsRyqACOXgQT6nPsP8/6nA7/PEQDITA4LAQUAYo/+w3fspKc/PlTZXvb592+nHVJVAea+cQIAZTAFwBD0Nfcf5sJfZjInnupeFwAEAErg/eMY/Uft/I96WvS3zCffBgQAHptpAip20tOfe5pZwE51nxtUCAAUxA1LraP/vl75Gzr/aU5t0YaRFFMRv/nmCQCUQ2mQWvXxyt8+t/vlUAWY+9oJAJRjpgkw+u+s88/5JT8pwr4AIABQinaFcp837TNXgRgZIPHoP5TYz4R9AUAAQBVgcyPNTwQpt/6FTu8o9yNwU6wDyGjXAwIAG7IOgHqG/mlf+ZvTXv+N+mijfwQAcqkAQMmj/5eFnacRM+wLAAIApUl8VCjEHP2PE47+Twt8q2bMCoBKogBAoZwHgNH/5s4z3u63KuzfRrzXDSIEAAolvVPD6H+c4I8K2/3eFdxU1wIAAgDfDA40AUb/a91kvte/z3tdFVEAoMgngnUAlD36HyUY/YcO7qiCe/0mxr1e0E4IBACWmGkCjP6XCp3baUWdXNf3utG/AEDhrAOg1NH/SeTO/6iy12dfR2gjBACMCqCq0f9ZZZ1/E+FthSoAAgCFPxTmjXUAlDX6D+f9TyJ3/le13vId/i6vARYA8FCApGK+8jds97uouO2ufX0QAHjIOgBKGv3HeuXvtILtfuvMMv1dCABU8FCAEkf/YT679s7/fsrP3D0CAL8/FG6FAArxKsLvvF/xP5RV7e51BAC+YW6QrEV65e/QOv8u73WVBAEAowJIIsbWv9Patvut09XbDJ0CKABQz0MhylGhkPHo/zTC3vhibnnfKgQAVAEoQddz/xcV7/XfhJ0/CAB8wzoAchz9j5tuX/oT9vqfCfsgAOChQN66nPsPU11D7/zvp/zM4SMA8PtDITwQzA1S6+j/66t9LV7745bf49/VhgIAFTI3SE66mvuv7dW+fd/rtgAKABgVQLTR/6jp7pW/R0Pb7udeRwBguyeCo0LJR1ed/6nOf+m9futeRwDgsZ80ARnoovx/PvDtfuvMNIEAAB4KZGMyOb5s9j/4J2z3e6c1V/qsCQQA+J1TAcmg8z/Z+2tc/6t9u+A+FwDgzw9QTUAPnf9JB51/6NR0/puxBkAAgD+JeSrggeZlSec/XvzjsoNfZbvfpilfOwkAmoAlD4ZZE++wj0MtzKPOP3wnfu7gV826etsdCAAMmQcpqTr/X5puKkPnWjQJVTwBgMo5FZCSOv+50X8yqngCACoAkEXnH1i4mv76IQBQI28Mo6DOP1CxSmusCQQAVAF26QBGmlbn33FgVQFI67kmEACoW6xRlQCg8++0/9e6KgAIAHTLQSHk3vkH11o4uQPrAAQAKmZVNR11/qOInf+tF/70FwI0gQCAKsC2Rpp1MJ1/6CR+jthZKP+DAIAAQIbeN3H3jTv8BwQAIvHKUHYd/Z80+7/cZ+Xofzr9ONfSIABQTgXge806iM7/MvIfY/S/3zUaawUBAFIHAKuHdf77umgPqwIEAGJoXxnqREBy6vxvjf5BAKDMKsBIk1bZ+b9P0PkHZ95ln4WxJijbd5qADcwFAFZ0/Adtxz9J8MfN7PsHAYB0vmgCVnT+4ZCfVOs6TrU6dMMUAJvovNxqBXIVnf8oced/btsfqACQltXWPO78Y57tv8x80fm/0/Kd2jeEeyOgCgDsxFZAnf82lP5BACC1SC8F8iKRMjv/2Gf7L3PhxVRZGmsCAQB28UwTFNn5h5H/KOEfO2/s+c/5OzHRCgIAbGukCYoT+8U+y5za85816wAEAAZgLgAMeqR30sR9sc8ySv8FfDU0gQCAACAA1Nv5H7aj/5RuFp3/mdaPqouXco3a7wcCAGzdsZD3Nbo/5S/1ok2r/uPr6v57rSkFANiWnQD562Pe/8yb/srKiZpAAIBtjTVB1qP/kyb9vH846/9C65cV5O0GEABgW99rgmw7/1GTft4/rPZ/qfWL9EITCACwDWsA8pX6sJ/Alr9ynbTrRRAAQAAoePT/podrE7b8TbV+2V8dTSAAwKYOjBqy9Dbxn2fLXx1eaQIBgDqNVAEGMfo/adKW/s3712Pcrh1BAKCiTmEUMQCMtXBWUi/mClv+5pq9GieaQACgsgxQUYdDf9f6satF53+lyavi3QACAG7qjR1aB5BJzz85Hif848JBP+b9QQBg4KNCq4eH5eu8vy1/IABgVGgaIA+pKgCn5v1BACB/KTrnidXDg2G/f90EOwEAo8LtQ4Cm7l3sF/DY71+/L5pAAKAC7ag81T59rxTtX8w5+RAujjQxCAAY/T828kaxfi1G57OYnb9Ff4PgNc4CAJVIvadXFSCDHNDx75vp/AdlrgkEAOqQekQ+TrwXnT+77vB3hYN+dP5DSo/TjyoAAgDF9/yT4zD338cBPW+1fq8P8KuORnFhq9+pFs3aTea/DwGAgYz+VQHysU/HHcLDj474LcJvHf++mSYVAKhDn2d6WwvQbxUgPMh32a531Xb+RoJl6LrD/qRJy/JPmoA/Df3vzub/754/xl/MHff+PThZ/ONyw1H/mQN+irzG/+OeVQGAb54LPgNtGf+v7ch+2YM9/Hfn7ahf51/oZe7s66LzL853moAlXmXwGV60HQ/9hoAwug9rAk7bg6FGD/7nGw/94l13FLavNWV5TAHw7bD77jCenzP4KLeLzuUvrghEv+fDdN8+O35CCPyrMFgeUwA8fBCErX+XmXycg/bzAHF92PPfP9f5CwCU3fmfLP7xS9PP3v+njFwZiGvReb9rdt/DHw57utCKZbIGQMf/prnbdpdjZxsqABaXQXzhRU1h6m+8xb9z4e2OAgBldvyH7Q2f8yj7mSsFSaoAoYR/1FYC3655LoRQ/iHiy6NIxCLA4Xb+uZX7l5mFs+RdMUj+jBi1IeD+Z9YGBZ2+CgCF39gldP5AfxWBeePNftWzCHB4ftb5A6ACMDwlLdqxtQgAAAAAAAAAAAAAAAAAAAAAAAAAAAAAAAAAAAAAAAAAAAAAAAAAAAAAAAAAAAAA+F8BBgAtI2C9XNe5LQAAAABJRU5ErkJggg==;" vertex="1" parent="1">
          <mxGeometry x="760" y="400" width="91" height="91" as="geometry" />
        </mxCell>
        <mxCell id="0b-b1j-9iYhwmvgux54W-12" value="report" style="shadow=0;dashed=0;html=1;strokeColor=none;fillColor=#4495D1;labelPosition=center;verticalLabelPosition=bottom;verticalAlign=top;align=center;outlineConnect=0;shape=mxgraph.veeam.2d.report;" vertex="1" parent="1">
          <mxGeometry x="960" y="500" width="36.8" height="50.8" as="geometry" />
        </mxCell>
        <mxCell id="0b-b1j-9iYhwmvgux54W-38" style="edgeStyle=none;rounded=0;orthogonalLoop=1;jettySize=auto;html=1;" edge="1" parent="1" source="0b-b1j-9iYhwmvgux54W-14" target="oF_maslsvYXRV8D9qIhB-4">
          <mxGeometry relative="1" as="geometry" />
        </mxCell>
        <mxCell id="0b-b1j-9iYhwmvgux54W-39" style="edgeStyle=none;rounded=0;orthogonalLoop=1;jettySize=auto;html=1;entryX=0;entryY=0.5;entryDx=0;entryDy=0;" edge="1" parent="1" source="0b-b1j-9iYhwmvgux54W-14" target="oF_maslsvYXRV8D9qIhB-3">
          <mxGeometry relative="1" as="geometry" />
        </mxCell>
        <mxCell id="0b-b1j-9iYhwmvgux54W-14" value="invoke.js" style="rounded=1;whiteSpace=wrap;html=1;" vertex="1" parent="1">
          <mxGeometry x="50" y="440" width="120" height="60" as="geometry" />
        </mxCell>
        <mxCell id="0b-b1j-9iYhwmvgux54W-18" style="edgeStyle=none;rounded=0;orthogonalLoop=1;jettySize=auto;html=1;" edge="1" parent="1" source="0b-b1j-9iYhwmvgux54W-16" target="0b-b1j-9iYhwmvgux54W-17">
          <mxGeometry relative="1" as="geometry" />
        </mxCell>
        <mxCell id="0b-b1j-9iYhwmvgux54W-16" value="api test dir" style="image;html=1;labelBackgroundColor=#ffffff;image=img/lib/clip_art/general/Full_Folder_128x128.png" vertex="1" parent="1">
          <mxGeometry x="-800" y="10" width="80" height="80" as="geometry" />
        </mxCell>
        <mxCell id="0b-b1j-9iYhwmvgux54W-20" style="edgeStyle=none;rounded=0;orthogonalLoop=1;jettySize=auto;html=1;" edge="1" parent="1" source="0b-b1j-9iYhwmvgux54W-17" target="0b-b1j-9iYhwmvgux54W-19">
          <mxGeometry relative="1" as="geometry" />
        </mxCell>
        <mxCell id="0b-b1j-9iYhwmvgux54W-23" style="edgeStyle=none;rounded=0;orthogonalLoop=1;jettySize=auto;html=1;entryX=0.042;entryY=0.665;entryDx=0;entryDy=0;entryPerimeter=0;" edge="1" parent="1" source="0b-b1j-9iYhwmvgux54W-17" target="0b-b1j-9iYhwmvgux54W-22">
          <mxGeometry relative="1" as="geometry" />
        </mxCell>
        <mxCell id="0b-b1j-9iYhwmvgux54W-17" value="atest loader" style="shape=image;html=1;verticalAlign=top;verticalLabelPosition=bottom;labelBackgroundColor=#ffffff;imageAspect=0;aspect=fixed;image=https://cdn1.iconfinder.com/data/icons/feather-2/24/loader-128.png" vertex="1" parent="1">
          <mxGeometry x="-450" y="30" width="98" height="98" as="geometry" />
        </mxCell>
        <mxCell id="0b-b1j-9iYhwmvgux54W-25" style="edgeStyle=none;rounded=0;orthogonalLoop=1;jettySize=auto;html=1;entryX=0;entryY=0.5;entryDx=0;entryDy=0;" edge="1" parent="1" source="0b-b1j-9iYhwmvgux54W-19" target="0b-b1j-9iYhwmvgux54W-28">
          <mxGeometry relative="1" as="geometry" />
        </mxCell>
        <mxCell id="0b-b1j-9iYhwmvgux54W-19" value="instances" style="rounded=1;whiteSpace=wrap;html=1;" vertex="1" parent="1">
          <mxGeometry x="-700" y="160" width="120" height="60" as="geometry" />
        </mxCell>
        <mxCell id="0b-b1j-9iYhwmvgux54W-29" style="edgeStyle=none;rounded=0;orthogonalLoop=1;jettySize=auto;html=1;entryX=0.5;entryY=0;entryDx=0;entryDy=0;" edge="1" parent="1" source="0b-b1j-9iYhwmvgux54W-22" target="0b-b1j-9iYhwmvgux54W-28">
          <mxGeometry relative="1" as="geometry" />
        </mxCell>
        <mxCell id="0b-b1j-9iYhwmvgux54W-36" style="edgeStyle=none;rounded=0;orthogonalLoop=1;jettySize=auto;html=1;" edge="1" parent="1" source="0b-b1j-9iYhwmvgux54W-22" target="0b-b1j-9iYhwmvgux54W-34">
          <mxGeometry relative="1" as="geometry" />
        </mxCell>
        <mxCell id="0b-b1j-9iYhwmvgux54W-22" value="context" style="ellipse;whiteSpace=wrap;html=1;" vertex="1" parent="1">
          <mxGeometry x="50" y="10" width="120" height="80" as="geometry" />
        </mxCell>
        <mxCell id="0b-b1j-9iYhwmvgux54W-27" style="edgeStyle=none;rounded=0;orthogonalLoop=1;jettySize=auto;html=1;" edge="1" parent="1" source="0b-b1j-9iYhwmvgux54W-24" target="0b-b1j-9iYhwmvgux54W-26">
          <mxGeometry relative="1" as="geometry" />
        </mxCell>
        <mxCell id="0b-b1j-9iYhwmvgux54W-24" value="needsAndOutpusSxg.js" style="shape=image;html=1;verticalLabelPosition=bottom;labelBackgroundColor=#ffffff;verticalAlign=top;imageAspect=1;aspect=fixed;image=data:image/png,iVBORw0KGgoAAAANSUhEUgAAAgAAAAIACAYAAAD0eNT6AAAAGXRFWHRTb2Z0d2FyZQBBZG9iZSBJbWFnZVJlYWR5ccllPAAAJv1JREFUeNrs3b12HEd+N+D2awVvJuwVcDbbxEdQ5oyDzBmHmQ8SAldA4gpIXAHBKwCU0KEGV6Bh6EjgcbLZDrP3jQxdgT1FNCQQGsxnV3VV9fOcA2vPrgUOq6e7fvWvj24aAAAAAAAAAAAAAAAAAAAAAAAAAAAAAAAAAAAAAAAAAAAAAAAAAAAAAAAAAAAAAAAAAAAAAAAAAAAAAAAAAAAAAAAAAAAABuqfNAE5mEyODxb/GC9+ni9+Dtufgyf+328WP/PFz/XiZzqdfrzVggzsfhkt/jFa9r8t7oeZFkIAoIQHWej0Xy1+Tvb4NVeLnzNBgMo7/EkbkMcrwnFw294THxb3xFzrIQCQY8f/tn2YdSE89M4XD7wLrUtlnX4IyId7hONzQQABgBweagdtx/8m0h8xW/y8VA2g4HvkpO30xx3+2hAEVMkQAOh11H/ZPDF32aGwRuB08bC70eoUFIxDKH7drC7vb+vl4ufn9j/ftvfFVIsjAJDyAfeuHfmnEh52R0IABXT8MStit0sCxcXivjjT+vyzJiDBQ+4y4gPuKf938fPvf/vbv/z/v//9v4QAcrwv3rSj83Hk++Cxf13cF6PFfXHtKqgAQOzO/6Tnj3FmcSAZ3RNhQV+4Lw57+gj3VYGrxX1x6ooIAFBr53/vqrEIiv7viUnb+R/0+DFmzR9VByFgwEwBMITOv2lHW//2t7/9y3/+/e//9f9cIXq4J8L98B/N8rJ8SqP2n/MQBBb3xBfTZCoAUGvnv6waYG80qTv/y8w+1k3zxzTEjxbMCgBQ44NuVRC4ti2KyPdE6GR/zfxjztsQYIpMAICdHnTjxT9+KfCjh4ffT83dfKiqAF3eEwdt5z8q4OOG92q8dNUEANhllBM6/4PC/yqhGhC2R82EATq4L8I2v0lBH9mOGQGADh8Ao0LS/z5Cp9/3yuYYbtqfz/f/WYmULe790PH/XNjHDt/vH4VfAYDdb/z7Yz1fDaDzH6Kb9kEZ/vlbczeF8PXHg5MHz4BfC73/Q/XryFUUANjtxg+l8EOtMVjzBz9f7gOD97QP6jnwrkl79HXXwjsDrlxJAYDtbvzQ+Y+1BCvCweNpBVWDup4BYdT/j8L/GqHC9VdTXnX7ThN0euOPdf6sMWp/Jg++N/ehICw+nHroFu9tBX+HUMl8HyoBLqcKAJsFgNwPwKEMX3ciKMEWOwj4paK/kgOCKvZ/NEGnjP7ppB9Z/FwuOpN/tAcrYfTfl/cuqQoAm6X//9EKRBBGYGcWERr99+TId08FAOjH10OWwqEybSeD0X9Kly6tAMB6Fm8RdZDZBoFf2kNmyGv0X2s4G5mKqpMpgG4fArYAktK8uXu3+ycLBnu/92tfAGxboAoAKgDkNDJrO51XmqLXzv+gqX/3z/3ppggAPOGzJqjaTTvivmj/OdMkNGW97Gcfb9tDjqiEg4C6FTqEt5qhKvPFz4fm7lXBt0+MAMfN3UK9F40poCF6MaC/a9gW6JXBlbAGoOuhwOT4v5ty3op3/0IbndZy54tO/92W1/+gHRG+SDgy9PIW93xKtgWqAPCEcIrbSY9//k07ar2fjvjmRl134z56ffHPA3uwPQxGL3d5yLVVgqvw07bl6/b7cODWqLLzPxzgtQ1VgB9dfQGAP7tOHABCJ/Wp/efe76tvX0wzb99mNtTO/6iL40/btjxbtOV5c7eAyvRQfcYD/DsfLr7Tbxbf7wuXv2ymAOKMCv7RxHkP+H3J/muHH6sM145qfh3o5Qsj/2mkdg3fiVBV6fpV0aYA+rvX3w002NkWqALAE8Kisc7P0F7cbH9J9PmHevLXNFbn/6Ai8KOXRlXl+UD/3gdt8DnzFSiXbYBxXDWFngnQjmgOB3rdrtOkjI/hFates1pPRzhUb9pqIQIADx7wtyUm4/ZmHuo8dbhm04Tfkas2KFK2oXeA3hYoAPDEA76092hfDvqSpZ/PPGucHlkso9+vxt5LIQCwXKdl3pgv5Bh46T+4Tv0HtoHjxm1SrJEmUAUQAHjqAR8e7uddjtBjhICBl/6D25iL/9b45E4p1nNNcBeEvC1QAGB5CHjX8SgvRggY+vu+p4V/fiGiH6YA/uCMCwGAJ3S94ruzEKD0/9V1j3/2C7dHscaa4JsqgPYQAFhSBQgVgK53BewdApT+fzfr4w9tDwYyiiyQzm6p15pAAGB5CLiI0NHsGwIuXZmvp+j1tRL/pKu/g8uYnMrNslzkdcECAE8Kr9HsurPZKQQo/f+uz/nzV5q/yNH/QeMkxyebRxMIACyvAoTOP8YJcFuFAKX//kfP7TXoarQ0dxmTCpUzb3dczjSAAMCKEBBWnMd4i9Y2IUDp/w997cN/1eF3SgBIF9xOjHJXGjkgSQBg9QP7LFLHszYEKP1/O3Lucf6/q05E55+u8w/3jUNv0n23EQCqFWM9wMoQoPSfR+fZHp06EgCKo/S/GQskBQDWVAHCgzvWG+GeCgFK/9/qq/z/ooK/w9BG/+8albNNHbYLJREAWBECwnqA80i//psQ4AG21G999Scd/q4vLmP0zj90Zq8Frq2MNYEAwPoQEDrmWEfRfg0BSv9PSj7/35b/uxwd6ZDSBLaD9vtyrjk24j0JBfhOE2QhTAWMIo3QQ9l/romz6Tw7nR9dBMiZyxjd/ej/qvH65k2pNqoAsOFD/P58gFgPl5FWzmAY2f0BMoJdmmt235n9pEUQAIgRAm6aeIsCyaQ/6fj3Kf/HN350j1rcpgIgABAlBMRcFMifpS7ndr09ymuA03VkMx3bVgQlAYAdQsC7pvz305fS1slG0G0pWQWgXCNNgABACqce7tXp/HQ0CwDTBoB9X789uC+8I4EFAHZ6sMdeFEh6Xb8kReefXthK+71m2JhpAAGAHUNAqACcaYkqRkKjpvu542stm74KsPh5oxm2ai8EAHYMAVdNnDcHkjgDRPidKgAIAAgAlYeAWG8OJJ1XHf++25QLGGFHP2iCvDkJsAxHi59/NObUyhv63y2E6rr8b5dInGs1bu+x++v13ChWBUAAoO8qwO3i4RReH/yL1hj86D8w/99Nhx86qLCwb6yzisIugMyZAignBMwahwQV2c9E+J0zzbp35x+uy6/N3dHMOv+4IQsBgA5CwDsP/6IefocROpdpu02U/a5LeEmWKbX4BAABgA6FqQAdQBmU//Ok809HOwsAdFgFuG1DAPk7ifEV0Kx7jf7DNTE3nY62FgDoOATMGucDdNEZjCP+7kmE0Y/y/37XJFyPt1oCBIDShQWBc82QrRcRfqf30e8njP5HmiGpZ5pAAKD7KsBtY1dA1gPOjn/fbfu6aHb3WhMkJ3AJAEQKAVeqAHuJMj/ZzjN3Xf6/crn2uiYTnVE99xgCAHdUAXYXa4Wy8n9+XmmCfu6xdu0FAgCRqgAWhu3meYSRZnjYdV3+v3H2/17XZNTEOZAJVQABgN5daYL+H0xt5/8+wuf84FLtd2k0gQCAAFArh8Ps5qCro0rbzj+8q+Gk488YqjsW/+3nuSbolZ0AAgCxtOcCsJtxR7/nMtJIx97//YOZCoAKAAJA1YSA3ey9YG/RyVxG7GQs8tzPiSaoJmQjAPAEo8Rd++89pgEW/+6biJ3MbDH6n7tEe7H6P4ub7FgVQAAgos+aIO0osd1b/j7i5zL636/TCcFOx5MH10EAgCy93bYK8OCVsrHcWNuxfwbQBNmwEFMAgGz9vGXnH1b8xzzgxNY/nY4KAAIAG7HVZs8HVFjMt+7UskSd/7w94AkVgJruLycCCgBEMtIEeztZ/PwaFvYtmxJoF/zF7vwDc//79vwWneVorAny8p0mcHPxpyAVFva9X3Qiffz5Rv/uh1qFKRmHWqkA0PFoR6mzHkb/3XU2CGUIANV7oQmqYPSvs6mZdQACAB2P/keN086M/nl4T4T5fx2NYIYAUP/zThNU4cbo3z0xAKZmBAA6pPxfhzNN0JkfNEG27M4QAHBD8cDMqX+dUv7P11gTCAB0oF1Q42FXvlNNoJMZ0HPLoEUAwOifhStv/NO5eG4hAMCwhFc4m/s3+h+akSYQAGDozhej/1vN0CmrzF0jBID6WThWtHDoz4Vm6JzysgoAAsBg3GiCIln417H2UCydiwCAADAY3htfnqnqjdH/wMOaayUAsH9P8vX0OJ1JOW6N/qMxt1wO25cFADrysjEVUAoL/1QAcK0EADqrAoQO5UgIyN6NhX9RjTWBCgACwJBDwJXWyJbSfyTmlEEAGHwIWPyETsbhMvkJpX8VmngEABAAaMvMPzZ3C87o33zxo/QflzcAggBAGwJu2hBg1Nm/Uwv/VABAACBlCAgjz6N2BEo/Luz5T2KsCUAA4NsQEEaeYZugEWh6IXida4a4LAAEAYCnQ0CYBrAwMD2l/zRGmgAEAJ4OAVeNqYCUlP7TUQEAAYB1OUATJBEO/FFxSccRwCAAsMa1JkjCgT9pjTQBCACsZj46vjMH/qQzmRwfCAAgALCGjim6mbP+kzP/DwIA9Op+uyUCAAgAMCAvbfnrxTNNAAIAa0wmx2OtEMW5LX8qACAAwLCEef93mkEAAAGAnB1ogk6Fkr8tfz1pdwD4ToMAgNFScqftC5fwfQYBgKxZMNWdcNSvkxX7NdIEIABgxJSSo34FABAAKEM7XyoA7M9+/3z8oAmK5f0NAgAJjTVBJ8z758MCQBAAkLiTMO+fFxWtco00gQBAOhNNsBfz/ioACAACAIX1/JPjQzfcXsK8/5FmyOo77fsMAgAbeKUJ9uKcfyNIEAAobqQUyqQnWmJnzvmHOM8mazgEAGLfZ4250l055z9fY01QPM8lAYDI3mqCndjvD3GNNIEAQKyh/+R44ibb2ZF5fxAABABK9VoT7ORs0fnfaIasOdcCBACeGP2PG/Oku5guOv8LzQBCnABAqcz9b2+++DnVDIAAgNH/cHxd9GfeHxAAMPofFvP+ZelyC5nQV/41RADA6H8nV4vO/0ozFKWrQ2Rs9yz/GiIAYPS/k/CSH/P+wzVtT3pUBUAAwOh/QIz++HIfBDQFAgBG/8Nxuhj9zTUDC9eaAAGAUkf/J0b/W7lYdP5GfdwN/+++C6YB0j+3PLMEAIz+kwov+TnTDDzOAZoAAYDSUvSbxrnam5o35v1ZzjQAAgBFdf4HRv8bc9gPTw//TQP0YawJBAB2Fzp/B2ps1vkfOeynquvZhe8f5wBNiwBACaP/cJDGGy2xESf91aWra/n4MBrTAGk90wQCALt5rwk2cuqkPzZhGiC5kSYQANh+9D9pzJ/p/NnXsukz0wD9tj8CACs6/wOjf50/nVh2Hr1pgH7bHwGAFcLCv5Fm0PnTWaD+Y/hvGiB1+3uWCQBseLNY+Kfz5+48h5ijUNMAqgACANm51AQrebXvMHyJ3AGZBhAABACyGv2/cbOsHRU64lcFYFs//Gn4bxogpeeaQABgdec/apz4t86pU/4EgA5HoKYB0hhrAgGA1ULp35aZp4UX/Mw0wzB0fK2fCgCmAdINcFQ2BQCeuDneSMlrnWuCwbnp8B5b1gEJlOkIAAIASx5Mo0bp3+ifqAFgWQfUTieZBkjDOgABgCXCgT9K/6v9pAkGqcudAKMn/nvTAGmMNYEAwLej/3Dc70RLrDXXBIM0SzACnWnmJEaPD2RCABhy5++4X1ityymApRWA6fTjvOM/B1UAAYC13jSO+4UntXP085gBQBUgKesABADahX+vtcTGrCAernmH991TI1DrANzHAgDJhFX/5sM2p62G61Ps75EdJu5jAYCUo/8TLQEbiboV8AEhQAVAACDJ6B9IHwBy+HNAADD6B9ZpV+mneP/Db1obAQCjfxhmFQAEAKKM/sMCGIf+gAAw5OegdQACwCCdNFbBwi4+a4JqeAYKAINk3z+oAIAAMCTtASQjLQHbm04/CgAgABTrlSYAVQAQAIY1+g9zXidaAgQAHAYkAAyLzh/2F3sh4A+aOAmLAAWAQbH4D/KvAOiYEADoTrvndaQlIPsAMNbECAB0yeI/6MB0+jEcBzzXEiAAFFME0ASQdxWg3aZLGtZaCAAD6PmV/7t0qwlonAhYA2stBIBBUP7PfORHcWY6JRAASjDWBNCpeaTfa286AgDdmEyORx4q0K3p9GMIAKaDQADIms4f4ogxHfS9ZvVsFADwJc/TXBPQ+uR+LZr1FgJA9Z5rgu60pV8QBkEAyN5IE0AUMaYAjEoRABAAIGfT6ccYAcAUAAIA+2t3ANCdmSago++Eqbk8npEClwBg9A/sZN5hZ6T8n542FwBgI/Z981iXRwIbjSIAoAIwgIc9ddh1HcBY0yEAIABAoabTj7MOf51yNAIAZGqmCVhi3tHvMQWQnjYXAAB2ttM0wGRyPNZ0vVN1EQAg3oOe6u26NuTx6NN7ABAAIEfT6Ue7AFhmtuO/93xNIAABADIw1wQ8YdfKkA4fAQAEAErVVoZ2qQ6NHh3+M9Kayf2gCQQAiDXKw/djlbEA0CuLAAUAWOs3TcAKn3b897wTAAEAVAAY4Pdj8vX/2BKIAADZsgOAVeY7/nujtvMfaUIEAMhQx0e+Ut/3Y58K0c+Ln9dasRd2YggAYPTP3nYNiQc6ot5YBCgAwErm/9nET5oABADqMtcErDOdfrxqVItAAKAqXzQBG5ppAhAA8FBneD5rgrJMJsfWXwgA8CRlXaiXhYACACy35xYvAAFAE1AgnT/bmGuC4ow1gQAAHujsa9qYMiqN9zEIALCURV1s3vvfvRr4VEsUZaQJBABYZqYJ2DIEhCrAlZYQABAAKNtcE7BDCAhVAOtHCjGZHNsJIADAN24XD3IBgF0dNdYDlMJZAAIAfMMIjn2qANYDgACAAMBAQ0BYD3ChJbI31gQCADxkBwBdhIAzYTJ732sCAQBUAIghTAVYD5AvawAEAPhm5CYA0OV36UxLCAACAKnMNIG2I5sQcNXcnRRIfmwDFADgd0b/xBCmAuaaIT/OAhAAamPOcXcWABKjChDOlvhrc3dGgN0BeTENIABU9bAxit3dTBMQ8d4M369rLZGVsSYQAGojBGzPCYAwPN4KKABUR0cmNAEqAALAAJnL3t4nTQDDM5kcCwECgNHswM00AYAAIAAMTLtACxgeO6cEgKo6s7lWEJjIkn3neZnbOSUA1MiIVluRH/vO8/JBEwgARrXDZgEgDM/pYvTvYCYBoEpfNIEKAPBk53+lGQQAFYBhC3OAFgGRinfQ9+tW5y8AVM+qdqN/smQNQL+d/5HOXwAYzOhWE6xl/h/Wd5y1dP4qowLAYPiyqwDAvqY6fwQAo9vqApIzE2CtkhcU6/wFAKNbtA9ZGGuCpPe3zl8AGKb2i2+F+9NUSGC90jrQ+45f59+z7zRBFjfDRDOoAMCO90hJg4irRad/6rKpAGCUu3JUY/8/VMcBaAIARrlrXWsCWCuE5LlmQAAokHUAghHs4XNhO2U86wQAHucATfDtQ8JJiVAli/4EAB6xDsDoH3SoCAA6vMEz/w+buS3pGaKyJwDw55ti3ljIIxCBCgACwDBzgCa4e6A5/hc2HjyUtKhOsBcAeIJ1AHeU/2Ezc58XAaAO0nE7qNEEuA+r7FA/+3oJACzr9e5KeUMPAbfOBodqA4B7WwBghaFPAxj9w+aKOlbXDgABAB3gKub/oc4RtdG/AMCahDz0Y4GNEGBzdgAgAKgC1NH5e/sfGShpGu5GuyIAeADVQPkfthkpOAMAAaC+kfBQn2cuPVT5nFDdEwDYMNXPm+EtmJk7/Y9MlHLvldShqu4JAKgCGP2jY+1ISYfqzHytBAAkZn9f6Ma8lM/pcC8BgG2Gw3cHZgxlzuzWASFkdu+VGAAOcm1S3yoBgO0NpVP0gIDtPR5VH2b6OVX3BADcOE+yP5jcO9f8UnMZq+pV9wQAVABUAChKUdNvk8mx8j8CQFW94jC2A9ofTI7mhX1e5X8EAFWA4nhAkKMvmmD/ELUI9yoAAgB7+Knyv58HBDm6KezzHbq3EQBq6x3rfjug0//I1W1hny/HNQA/+RoJAEjSRgiUFrxnhX3kHzIM9w7/EQDoQK3b5Mz/k7N5QZ91lNnn+eDrIwBgpPwU+4MRALqT2xqAK18fAYAuev+7bXK1ldOU/8ldEZW3yeQ4t9H/la29AgDdqq1c7vQ/VAC6+Wy5BQBTewIARswqABQt56rbw3MKxjkFE3v/BQC67i3r2g44VSKkkHuuBM8EewQAVYBSKP9TilkBn3GU0Wex+l8AQMdplEAVSqgC5LIDYOZgLwEAHefKB6qHBAX5nOnnmj34z7mcAujkPwGAaL1/HdsBzf1TklnOH24yOR73Hegf3NcqewIAQ34gbWDsElJQ6J4LrSuNfm8qC3sFAKKzxxaE7ttHHXBvGan9p8V/AgAJRiQzIxJI6lOGz4GbTALASXO3rseLfwQABjwigVrp3FYz+hcAGPKIZAtzl4+SZP7Sqr4PAbL4TwAg9TNJAICkcg0Bo57/fC/+EQBIPCKZF9yROgUQ39t6wojyvwCAEcnGzKfifqukTRzqJQBgRLKpW28Ko0SZrwPoi5P/BACMSDZ/jrpsuOeqEF77e6UZBAD6GZHMm/LK6Q4xomTWrxj9CwAYkew4YlABwP22v4fBf9zTZ7jwdRAAMCLZlNXCFC2jdQC/9d4Utv4JAGQ1EshZeFhcuVyoAlRB+V8AIIMRybwp4zwAIwZqMfR1AHbyCACoAmzF4j+qyd0D//vPfAUEAPLx2YgBEvX+d2+9G3I1S5gXAJDIjZhwz/m7IwCAEQO+07WbO/pXACCn4XX+R5QaMWAUXAfv8RAAcGNu/rms/qfC0B1GwbmMhFN+js+uvgCAAJDjwwmS5oBMPses0j8LAYDCk7kRA7X6NMDPoZonAKACoALAwIf/+WxtnSX8O1sDIACQ4cNolulHEwCo+tbL4N6fu88QAJDOIa1PA7r3Zy63AIAAAGRSAWhZa4MAMHAeApCy978rv+cQvI3OEQBUAIABdr7ufQSAgY9GjAIgvZ8yuPfD9ry5S4EAoAoApOt8bzLpfN37CAADpwoA9d93z5b8d9YAIQAMnIcApPcl8Z83WhFCnNaHADBQyoBQv9sV9/480p95qNkFADKW4VGdY1cFOvd5yb1/2waDWB31wWRyPNH0AgB5m2X0WZ65HAxALt/z2AOAFy61AEDecqoCKBsyBIeZ3OOxjyZWARAAyFxOCwEPJ5PjA5eEWi2+36MeAsB8y/++K2Ea4MRVFwBQAVAFgKZJ3SHerljrM0/w5z93yQUAMmUhICQb/Yfq1uvUt/iKe3+W4q/tygsA5G2W0WcxYqBWl4uf1FNc12v+99hVgDANINQLAGTMQkCIO/p/08NoOJT/172CeJ7gcwgAAgAZ+5TRZzloF0pBLZ3/yeIf73v4oz9kcu+r6gkAqACoAjDIzv+yhz86HPJzseH/X/QKgN09AgCZmk4/zpu8zgQXAND57+e8Pe0vl/A/9o0QAFAF2MQPLgc6/93v5UXnf5FZkzgVUAAgYzmtA1ABQOe/u7MMg7/tgAIAKgAbGZkzpNDO/7Lnzv9im/39G04TdMHLgQQABABVAKru/E96/AihMz/PuIlMAwgA5MhCQCi68w9OdxzRmwZAAMBCQCi0859ucOjPqspBCqYBBAAyZiEglNf5hw78tJAmMw0gAKACIACg8+/IecLFfPsa++YIAAgAmzxgPSzQ+a+5ZzvY8z9P+HlHjvoWAMhQuxBwntFHUgUgx87/TSadf3DWwe/4ogqAAEBuVQALAcmt8w+h9H0mH+dqmz3/GfFyIAGATH1WAYAnXWbwGcKoP/c9/+5rAYAC5TSi8KAgp9H/SSbfyVCB+NBO2QkACAB0xkJAWO5tJp8jdPwXLgcCAJ1qtxPlNLIwWiCHIBoOsBll8nFK2vaHAIAqwM68FIgcvMrkc8wWnf9VBYFq5CslAJCnnBYC2glADp1VLkfYnlXSrAKAAECmZioA8Ltc5v5D6f/G5UAAICYPGbgb/R9kMvqfNxb+IQAQW7vASAiApgmn/uVQhTq18A8BgKFVAewCoM/R/+ssMnmZJ/4hAFCoXBYCWgPAkEf/YdR/5lIgADDECgD0JYetf+cJTvybu9QIAPxOyZEha4/9HfX8MWYdvOpXAEAAQBUAttD31r9Q+j91GRAAGHQA8D4ABjj6P0/1sh/VPgQAlvmsCRigvuf+U5X+H7LFEAGA/CoAkHD0P178Y9zjR+ir9H9T+Z+HAMA2lAYZoL7n/s9Slf4f+ZT42aLiIACgCgBG/62rHt/0N/cNQADgsRyqACOXgQT6nPsP8/6nA7/PEQDITA4LAQUAYo/+w3fspKc/PlTZXvb592+nHVJVAea+cQIAZTAFwBD0Nfcf5sJfZjInnupeFwAEAErg/eMY/Uft/I96WvS3zCffBgQAHptpAip20tOfe5pZwE51nxtUCAAUxA1LraP/vl75Gzr/aU5t0YaRFFMRv/nmCQCUQ2mQWvXxyt8+t/vlUAWY+9oJAJRjpgkw+u+s88/5JT8pwr4AIABQinaFcp837TNXgRgZIPHoP5TYz4R9AUAAQBVgcyPNTwQpt/6FTu8o9yNwU6wDyGjXAwIAG7IOgHqG/mlf+ZvTXv+N+mijfwQAcqkAQMmj/5eFnacRM+wLAAIApUl8VCjEHP2PE47+Twt8q2bMCoBKogBAoZwHgNH/5s4z3u63KuzfRrzXDSIEAAolvVPD6H+c4I8K2/3eFdxU1wIAAgDfDA40AUb/a91kvte/z3tdFVEAoMgngnUAlD36HyUY/YcO7qiCe/0mxr1e0E4IBACWmGkCjP6XCp3baUWdXNf3utG/AEDhrAOg1NH/SeTO/6iy12dfR2gjBACMCqCq0f9ZZZ1/E+FthSoAAgCFPxTmjXUAlDX6D+f9TyJ3/le13vId/i6vARYA8FCApGK+8jds97uouO2ufX0QAHjIOgBKGv3HeuXvtILtfuvMMv1dCABU8FCAEkf/YT679s7/fsrP3D0CAL8/FG6FAArxKsLvvF/xP5RV7e51BAC+YW6QrEV65e/QOv8u73WVBAEAowJIIsbWv9Patvut09XbDJ0CKABQz0MhylGhkPHo/zTC3vhibnnfKgQAVAEoQddz/xcV7/XfhJ0/CAB8wzoAchz9j5tuX/oT9vqfCfsgAOChQN66nPsPU11D7/zvp/zM4SMA8PtDITwQzA1S6+j/66t9LV7745bf49/VhgIAFTI3SE66mvuv7dW+fd/rtgAKABgVQLTR/6jp7pW/R0Pb7udeRwBguyeCo0LJR1ed/6nOf+m9futeRwDgsZ80ARnoovx/PvDtfuvMNIEAAB4KZGMyOb5s9j/4J2z3e6c1V/qsCQQA+J1TAcmg8z/Z+2tc/6t9u+A+FwDgzw9QTUAPnf9JB51/6NR0/puxBkAAgD+JeSrggeZlSec/XvzjsoNfZbvfpilfOwkAmoAlD4ZZE++wj0MtzKPOP3wnfu7gV826etsdCAAMmQcpqTr/X5puKkPnWjQJVTwBgMo5FZCSOv+50X8yqngCACoAkEXnH1i4mv76IQBQI28Mo6DOP1CxSmusCQQAVAF26QBGmlbn33FgVQFI67kmEACoW6xRlQCg8++0/9e6KgAIAHTLQSHk3vkH11o4uQPrAAQAKmZVNR11/qOInf+tF/70FwI0gQCAKsC2Rpp1MJ1/6CR+jthZKP+DAIAAQIbeN3H3jTv8BwQAIvHKUHYd/Z80+7/cZ+Xofzr9ONfSIABQTgXge806iM7/MvIfY/S/3zUaawUBAFIHAKuHdf77umgPqwIEAGJoXxnqREBy6vxvjf5BAKDMKsBIk1bZ+b9P0PkHZ95ln4WxJijbd5qADcwFAFZ0/Adtxz9J8MfN7PsHAYB0vmgCVnT+4ZCfVOs6TrU6dMMUAJvovNxqBXIVnf8oced/btsfqACQltXWPO78Y57tv8x80fm/0/Kd2jeEeyOgCgDsxFZAnf82lP5BACC1SC8F8iKRMjv/2Gf7L3PhxVRZGmsCAQB28UwTFNn5h5H/KOEfO2/s+c/5OzHRCgIAbGukCYoT+8U+y5za85816wAEAAZgLgAMeqR30sR9sc8ySv8FfDU0gQCAACAA1Nv5H7aj/5RuFp3/mdaPqouXco3a7wcCAGzdsZD3Nbo/5S/1ok2r/uPr6v57rSkFANiWnQD562Pe/8yb/srKiZpAAIBtjTVB1qP/kyb9vH846/9C65cV5O0GEABgW99rgmw7/1GTft4/rPZ/qfWL9EITCACwDWsA8pX6sJ/Alr9ynbTrRRAAQAAoePT/podrE7b8TbV+2V8dTSAAwKYOjBqy9Dbxn2fLXx1eaQIBgDqNVAEGMfo/adKW/s3712Pcrh1BAKCiTmEUMQCMtXBWUi/mClv+5pq9GieaQACgsgxQUYdDf9f6satF53+lyavi3QACAG7qjR1aB5BJzz85Hif848JBP+b9QQBg4KNCq4eH5eu8vy1/IABgVGgaIA+pKgCn5v1BACB/KTrnidXDg2G/f90EOwEAo8LtQ4Cm7l3sF/DY71+/L5pAAKAC7ag81T59rxTtX8w5+RAujjQxCAAY/T828kaxfi1G57OYnb9Ff4PgNc4CAJVIvadXFSCDHNDx75vp/AdlrgkEAOqQekQ+TrwXnT+77vB3hYN+dP5DSo/TjyoAAgDF9/yT4zD338cBPW+1fq8P8KuORnFhq9+pFs3aTea/DwGAgYz+VQHysU/HHcLDj474LcJvHf++mSYVAKhDn2d6WwvQbxUgPMh32a531Xb+RoJl6LrD/qRJy/JPmoA/Df3vzub/754/xl/MHff+PThZ/ONyw1H/mQN+irzG/+OeVQGAb54LPgNtGf+v7ch+2YM9/Hfn7ahf51/oZe7s66LzL853moAlXmXwGV60HQ/9hoAwug9rAk7bg6FGD/7nGw/94l13FLavNWV5TAHw7bD77jCenzP4KLeLzuUvrghEv+fDdN8+O35CCPyrMFgeUwA8fBCErX+XmXycg/bzAHF92PPfP9f5CwCU3fmfLP7xS9PP3v+njFwZiGvReb9rdt/DHw57utCKZbIGQMf/prnbdpdjZxsqABaXQXzhRU1h6m+8xb9z4e2OAgBldvyH7Q2f8yj7mSsFSaoAoYR/1FYC3655LoRQ/iHiy6NIxCLA4Xb+uZX7l5mFs+RdMUj+jBi1IeD+Z9YGBZ2+CgCF39gldP5AfxWBeePNftWzCHB4ftb5A6ACMDwlLdqxtQgAAAAAAAAAAAAAAAAAAAAAAAAAAAAAAAAAAAAAAAAAAAAAAAAAAAAAAAAAAAAA+F8BBgAtI2C9XNe5LQAAAABJRU5ErkJggg==;" vertex="1" parent="1">
          <mxGeometry x="-620" y="380" width="91" height="91" as="geometry" />
        </mxCell>
        <mxCell id="0b-b1j-9iYhwmvgux54W-32" style="edgeStyle=none;rounded=0;orthogonalLoop=1;jettySize=auto;html=1;" edge="1" parent="1" source="0b-b1j-9iYhwmvgux54W-26" target="0b-b1j-9iYhwmvgux54W-31">
          <mxGeometry relative="1" as="geometry" />
        </mxCell>
        <mxCell id="0b-b1j-9iYhwmvgux54W-26" value="instances&lt;br&gt;needs &amp;amp; outputs" style="rounded=1;whiteSpace=wrap;html=1;" vertex="1" parent="1">
          <mxGeometry x="-440" y="400" width="120" height="60" as="geometry" />
        </mxCell>
        <mxCell id="0b-b1j-9iYhwmvgux54W-30" style="edgeStyle=none;rounded=0;orthogonalLoop=1;jettySize=auto;html=1;" edge="1" parent="1" source="0b-b1j-9iYhwmvgux54W-28" target="0b-b1j-9iYhwmvgux54W-24">
          <mxGeometry relative="1" as="geometry" />
        </mxCell>
        <mxCell id="0b-b1j-9iYhwmvgux54W-28" value="translator" style="triangle;whiteSpace=wrap;html=1;" vertex="1" parent="1">
          <mxGeometry x="-510" y="240" width="60" height="80" as="geometry" />
        </mxCell>
        <mxCell id="0b-b1j-9iYhwmvgux54W-35" style="edgeStyle=none;rounded=0;orthogonalLoop=1;jettySize=auto;html=1;" edge="1" parent="1" source="0b-b1j-9iYhwmvgux54W-31" target="0b-b1j-9iYhwmvgux54W-34">
          <mxGeometry relative="1" as="geometry" />
        </mxCell>
        <mxCell id="0b-b1j-9iYhwmvgux54W-31" value="instance chain" style="rounded=1;whiteSpace=wrap;html=1;" vertex="1" parent="1">
          <mxGeometry x="-340" y="270" width="120" height="60" as="geometry" />
        </mxCell>
        <mxCell id="0b-b1j-9iYhwmvgux54W-37" style="edgeStyle=none;rounded=0;orthogonalLoop=1;jettySize=auto;html=1;" edge="1" parent="1" source="0b-b1j-9iYhwmvgux54W-34" target="0b-b1j-9iYhwmvgux54W-14">
          <mxGeometry relative="1" as="geometry" />
        </mxCell>
        <mxCell id="0b-b1j-9iYhwmvgux54W-34" value="req.fillSxg.js" style="shape=image;html=1;verticalLabelPosition=bottom;labelBackgroundColor=#ffffff;verticalAlign=top;imageAspect=1;aspect=fixed;image=data:image/png,iVBORw0KGgoAAAANSUhEUgAAAgAAAAIACAYAAAD0eNT6AAAAGXRFWHRTb2Z0d2FyZQBBZG9iZSBJbWFnZVJlYWR5ccllPAAAJv1JREFUeNrs3b12HEd+N+D2awVvJuwVcDbbxEdQ5oyDzBmHmQ8SAldA4gpIXAHBKwCU0KEGV6Bh6EjgcbLZDrP3jQxdgT1FNCQQGsxnV3VV9fOcA2vPrgUOq6e7fvWvj24aAAAAAAAAAAAAAAAAAAAAAAAAAAAAAAAAAAAAAAAAAAAAAAAAAAAAAAAAAAAAAAAAAAAAAAAAAAAAAAAAAAAAAAAAAAAABuqfNAE5mEyODxb/GC9+ni9+Dtufgyf+328WP/PFz/XiZzqdfrzVggzsfhkt/jFa9r8t7oeZFkIAoIQHWej0Xy1+Tvb4NVeLnzNBgMo7/EkbkMcrwnFw294THxb3xFzrIQCQY8f/tn2YdSE89M4XD7wLrUtlnX4IyId7hONzQQABgBweagdtx/8m0h8xW/y8VA2g4HvkpO30xx3+2hAEVMkQAOh11H/ZPDF32aGwRuB08bC70eoUFIxDKH7drC7vb+vl4ufn9j/ftvfFVIsjAJDyAfeuHfmnEh52R0IABXT8MStit0sCxcXivjjT+vyzJiDBQ+4y4gPuKf938fPvf/vbv/z/v//9v4QAcrwv3rSj83Hk++Cxf13cF6PFfXHtKqgAQOzO/6Tnj3FmcSAZ3RNhQV+4Lw57+gj3VYGrxX1x6ooIAFBr53/vqrEIiv7viUnb+R/0+DFmzR9VByFgwEwBMITOv2lHW//2t7/9y3/+/e//9f9cIXq4J8L98B/N8rJ8SqP2n/MQBBb3xBfTZCoAUGvnv6waYG80qTv/y8w+1k3zxzTEjxbMCgBQ44NuVRC4ti2KyPdE6GR/zfxjztsQYIpMAICdHnTjxT9+KfCjh4ffT83dfKiqAF3eEwdt5z8q4OOG92q8dNUEANhllBM6/4PC/yqhGhC2R82EATq4L8I2v0lBH9mOGQGADh8Ao0LS/z5Cp9/3yuYYbtqfz/f/WYmULe790PH/XNjHDt/vH4VfAYDdb/z7Yz1fDaDzH6Kb9kEZ/vlbczeF8PXHg5MHz4BfC73/Q/XryFUUANjtxg+l8EOtMVjzBz9f7gOD97QP6jnwrkl79HXXwjsDrlxJAYDtbvzQ+Y+1BCvCweNpBVWDup4BYdT/j8L/GqHC9VdTXnX7ThN0euOPdf6sMWp/Jg++N/ehICw+nHroFu9tBX+HUMl8HyoBLqcKAJsFgNwPwKEMX3ciKMEWOwj4paK/kgOCKvZ/NEGnjP7ppB9Z/FwuOpN/tAcrYfTfl/cuqQoAm6X//9EKRBBGYGcWERr99+TId08FAOjH10OWwqEybSeD0X9Kly6tAMB6Fm8RdZDZBoFf2kNmyGv0X2s4G5mKqpMpgG4fArYAktK8uXu3+ycLBnu/92tfAGxboAoAKgDkNDJrO51XmqLXzv+gqX/3z/3ppggAPOGzJqjaTTvivmj/OdMkNGW97Gcfb9tDjqiEg4C6FTqEt5qhKvPFz4fm7lXBt0+MAMfN3UK9F40poCF6MaC/a9gW6JXBlbAGoOuhwOT4v5ty3op3/0IbndZy54tO/92W1/+gHRG+SDgy9PIW93xKtgWqAPCEcIrbSY9//k07ar2fjvjmRl134z56ffHPA3uwPQxGL3d5yLVVgqvw07bl6/b7cODWqLLzPxzgtQ1VgB9dfQGAP7tOHABCJ/Wp/efe76tvX0wzb99mNtTO/6iL40/btjxbtOV5c7eAyvRQfcYD/DsfLr7Tbxbf7wuXv2ymAOKMCv7RxHkP+H3J/muHH6sM145qfh3o5Qsj/2mkdg3fiVBV6fpV0aYA+rvX3w002NkWqALAE8Kisc7P0F7cbH9J9PmHevLXNFbn/6Ai8KOXRlXl+UD/3gdt8DnzFSiXbYBxXDWFngnQjmgOB3rdrtOkjI/hFates1pPRzhUb9pqIQIADx7wtyUm4/ZmHuo8dbhm04Tfkas2KFK2oXeA3hYoAPDEA76092hfDvqSpZ/PPGucHlkso9+vxt5LIQCwXKdl3pgv5Bh46T+4Tv0HtoHjxm1SrJEmUAUQAHjqAR8e7uddjtBjhICBl/6D25iL/9b45E4p1nNNcBeEvC1QAGB5CHjX8SgvRggY+vu+p4V/fiGiH6YA/uCMCwGAJ3S94ruzEKD0/9V1j3/2C7dHscaa4JsqgPYQAFhSBQgVgK53BewdApT+fzfr4w9tDwYyiiyQzm6p15pAAGB5CLiI0NHsGwIuXZmvp+j1tRL/pKu/g8uYnMrNslzkdcECAE8Kr9HsurPZKQQo/f+uz/nzV5q/yNH/QeMkxyebRxMIACyvAoTOP8YJcFuFAKX//kfP7TXoarQ0dxmTCpUzb3dczjSAAMCKEBBWnMd4i9Y2IUDp/w997cN/1eF3SgBIF9xOjHJXGjkgSQBg9QP7LFLHszYEKP1/O3Lucf6/q05E55+u8w/3jUNv0n23EQCqFWM9wMoQoPSfR+fZHp06EgCKo/S/GQskBQDWVAHCgzvWG+GeCgFK/9/qq/z/ooK/w9BG/+8albNNHbYLJREAWBECwnqA80i//psQ4AG21G999Scd/q4vLmP0zj90Zq8Frq2MNYEAwPoQEDrmWEfRfg0BSv9PSj7/35b/uxwd6ZDSBLaD9vtyrjk24j0JBfhOE2QhTAWMIo3QQ9l/romz6Tw7nR9dBMiZyxjd/ej/qvH65k2pNqoAsOFD/P58gFgPl5FWzmAY2f0BMoJdmmt235n9pEUQAIgRAm6aeIsCyaQ/6fj3Kf/HN350j1rcpgIgABAlBMRcFMifpS7ndr09ymuA03VkMx3bVgQlAYAdQsC7pvz305fS1slG0G0pWQWgXCNNgABACqce7tXp/HQ0CwDTBoB9X789uC+8I4EFAHZ6sMdeFEh6Xb8kReefXthK+71m2JhpAAGAHUNAqACcaYkqRkKjpvu542stm74KsPh5oxm2ai8EAHYMAVdNnDcHkjgDRPidKgAIAAgAlYeAWG8OJJ1XHf++25QLGGFHP2iCvDkJsAxHi59/NObUyhv63y2E6rr8b5dInGs1bu+x++v13ChWBUAAoO8qwO3i4RReH/yL1hj86D8w/99Nhx86qLCwb6yzisIugMyZAignBMwahwQV2c9E+J0zzbp35x+uy6/N3dHMOv+4IQsBgA5CwDsP/6IefocROpdpu02U/a5LeEmWKbX4BAABgA6FqQAdQBmU//Ok809HOwsAdFgFuG1DAPk7ifEV0Kx7jf7DNTE3nY62FgDoOATMGucDdNEZjCP+7kmE0Y/y/37XJFyPt1oCBIDShQWBc82QrRcRfqf30e8njP5HmiGpZ5pAAKD7KsBtY1dA1gPOjn/fbfu6aHb3WhMkJ3AJAEQKAVeqAHuJMj/ZzjN3Xf6/crn2uiYTnVE99xgCAHdUAXYXa4Wy8n9+XmmCfu6xdu0FAgCRqgAWhu3meYSRZnjYdV3+v3H2/17XZNTEOZAJVQABgN5daYL+H0xt5/8+wuf84FLtd2k0gQCAAFArh8Ps5qCro0rbzj+8q+Gk488YqjsW/+3nuSbolZ0AAgCxtOcCsJtxR7/nMtJIx97//YOZCoAKAAJA1YSA3ey9YG/RyVxG7GQs8tzPiSaoJmQjAPAEo8Rd++89pgEW/+6biJ3MbDH6n7tEe7H6P4ub7FgVQAAgos+aIO0osd1b/j7i5zL636/TCcFOx5MH10EAgCy93bYK8OCVsrHcWNuxfwbQBNmwEFMAgGz9vGXnH1b8xzzgxNY/nY4KAAIAG7HVZs8HVFjMt+7UskSd/7w94AkVgJruLycCCgBEMtIEeztZ/PwaFvYtmxJoF/zF7vwDc//79vwWneVorAny8p0mcHPxpyAVFva9X3Qiffz5Rv/uh1qFKRmHWqkA0PFoR6mzHkb/3XU2CGUIANV7oQmqYPSvs6mZdQACAB2P/keN086M/nl4T4T5fx2NYIYAUP/zThNU4cbo3z0xAKZmBAA6pPxfhzNN0JkfNEG27M4QAHBD8cDMqX+dUv7P11gTCAB0oF1Q42FXvlNNoJMZ0HPLoEUAwOifhStv/NO5eG4hAMCwhFc4m/s3+h+akSYQAGDozhej/1vN0CmrzF0jBID6WThWtHDoz4Vm6JzysgoAAsBg3GiCIln417H2UCydiwCAADAY3htfnqnqjdH/wMOaayUAsH9P8vX0OJ1JOW6N/qMxt1wO25cFADrysjEVUAoL/1QAcK0EADqrAoQO5UgIyN6NhX9RjTWBCgACwJBDwJXWyJbSfyTmlEEAGHwIWPyETsbhMvkJpX8VmngEABAAaMvMPzZ3C87o33zxo/QflzcAggBAGwJu2hBg1Nm/Uwv/VABAACBlCAgjz6N2BEo/Luz5T2KsCUAA4NsQEEaeYZugEWh6IXida4a4LAAEAYCnQ0CYBrAwMD2l/zRGmgAEAJ4OAVeNqYCUlP7TUQEAAYB1OUATJBEO/FFxSccRwCAAsMa1JkjCgT9pjTQBCACsZj46vjMH/qQzmRwfCAAgALCGjim6mbP+kzP/DwIA9Op+uyUCAAgAMCAvbfnrxTNNAAIAa0wmx2OtEMW5LX8qACAAwLCEef93mkEAAAGAnB1ogk6Fkr8tfz1pdwD4ToMAgNFScqftC5fwfQYBgKxZMNWdcNSvkxX7NdIEIABgxJSSo34FABAAKEM7XyoA7M9+/3z8oAmK5f0NAgAJjTVBJ8z758MCQBAAkLiTMO+fFxWtco00gQBAOhNNsBfz/ioACAACAIX1/JPjQzfcXsK8/5FmyOo77fsMAgAbeKUJ9uKcfyNIEAAobqQUyqQnWmJnzvmHOM8mazgEAGLfZ4250l055z9fY01QPM8lAYDI3mqCndjvD3GNNIEAQKyh/+R44ibb2ZF5fxAABABK9VoT7ORs0fnfaIasOdcCBACeGP2PG/Oku5guOv8LzQBCnABAqcz9b2+++DnVDIAAgNH/cHxd9GfeHxAAMPofFvP+ZelyC5nQV/41RADA6H8nV4vO/0ozFKWrQ2Rs9yz/GiIAYPS/k/CSH/P+wzVtT3pUBUAAwOh/QIz++HIfBDQFAgBG/8Nxuhj9zTUDC9eaAAGAUkf/J0b/W7lYdP5GfdwN/+++C6YB0j+3PLMEAIz+kwov+TnTDDzOAZoAAYDSUvSbxrnam5o35v1ZzjQAAgBFdf4HRv8bc9gPTw//TQP0YawJBAB2Fzp/B2ps1vkfOeynquvZhe8f5wBNiwBACaP/cJDGGy2xESf91aWra/n4MBrTAGk90wQCALt5rwk2cuqkPzZhGiC5kSYQANh+9D9pzJ/p/NnXsukz0wD9tj8CACs6/wOjf50/nVh2Hr1pgH7bHwGAFcLCv5Fm0PnTWaD+Y/hvGiB1+3uWCQBseLNY+Kfz5+48h5ijUNMAqgACANm51AQrebXvMHyJ3AGZBhAABACyGv2/cbOsHRU64lcFYFs//Gn4bxogpeeaQABgdec/apz4t86pU/4EgA5HoKYB0hhrAgGA1ULp35aZp4UX/Mw0wzB0fK2fCgCmAdINcFQ2BQCeuDneSMlrnWuCwbnp8B5b1gEJlOkIAAIASx5Mo0bp3+ifqAFgWQfUTieZBkjDOgABgCXCgT9K/6v9pAkGqcudAKMn/nvTAGmMNYEAwLej/3Dc70RLrDXXBIM0SzACnWnmJEaPD2RCABhy5++4X1ityymApRWA6fTjvOM/B1UAAYC13jSO+4UntXP085gBQBUgKesABADahX+vtcTGrCAernmH991TI1DrANzHAgDJhFX/5sM2p62G61Ps75EdJu5jAYCUo/8TLQEbiboV8AEhQAVAACDJ6B9IHwBy+HNAADD6B9ZpV+mneP/Db1obAQCjfxhmFQAEAKKM/sMCGIf+gAAw5OegdQACwCCdNFbBwi4+a4JqeAYKAINk3z+oAIAAMCTtASQjLQHbm04/CgAgABTrlSYAVQAQAIY1+g9zXidaAgQAHAYkAAyLzh/2F3sh4A+aOAmLAAWAQbH4D/KvAOiYEADoTrvndaQlIPsAMNbECAB0yeI/6MB0+jEcBzzXEiAAFFME0ASQdxWg3aZLGtZaCAAD6PmV/7t0qwlonAhYA2stBIBBUP7PfORHcWY6JRAASjDWBNCpeaTfa286AgDdmEyORx4q0K3p9GMIAKaDQADIms4f4ogxHfS9ZvVsFADwJc/TXBPQ+uR+LZr1FgJA9Z5rgu60pV8QBkEAyN5IE0AUMaYAjEoRABAAIGfT6ccYAcAUAAIA+2t3ANCdmSago++Eqbk8npEClwBg9A/sZN5hZ6T8n542FwBgI/Z981iXRwIbjSIAoAIwgIc9ddh1HcBY0yEAIABAoabTj7MOf51yNAIAZGqmCVhi3tHvMQWQnjYXAAB2ttM0wGRyPNZ0vVN1EQAg3oOe6u26NuTx6NN7ABAAIEfT6Ue7AFhmtuO/93xNIAABADIw1wQ8YdfKkA4fAQAEAErVVoZ2qQ6NHh3+M9Kayf2gCQQAiDXKw/djlbEA0CuLAAUAWOs3TcAKn3b897wTAAEAVAAY4Pdj8vX/2BKIAADZsgOAVeY7/nujtvMfaUIEAMhQx0e+Ut/3Y58K0c+Ln9dasRd2YggAYPTP3nYNiQc6ot5YBCgAwErm/9nET5oABADqMtcErDOdfrxqVItAAKAqXzQBG5ppAhAA8FBneD5rgrJMJsfWXwgA8CRlXaiXhYACACy35xYvAAFAE1AgnT/bmGuC4ow1gQAAHujsa9qYMiqN9zEIALCURV1s3vvfvRr4VEsUZaQJBABYZqYJ2DIEhCrAlZYQABAAKNtcE7BDCAhVAOtHCjGZHNsJIADAN24XD3IBgF0dNdYDlMJZAAIAfMMIjn2qANYDgACAAMBAQ0BYD3ChJbI31gQCADxkBwBdhIAzYTJ732sCAQBUAIghTAVYD5AvawAEAPhm5CYA0OV36UxLCAACAKnMNIG2I5sQcNXcnRRIfmwDFADgd0b/xBCmAuaaIT/OAhAAamPOcXcWABKjChDOlvhrc3dGgN0BeTENIABU9bAxit3dTBMQ8d4M369rLZGVsSYQAGojBGzPCYAwPN4KKABUR0cmNAEqAALAAJnL3t4nTQDDM5kcCwECgNHswM00AYAAIAAMTLtACxgeO6cEgKo6s7lWEJjIkn3neZnbOSUA1MiIVluRH/vO8/JBEwgARrXDZgEgDM/pYvTvYCYBoEpfNIEKAPBk53+lGQQAFYBhC3OAFgGRinfQ9+tW5y8AVM+qdqN/smQNQL+d/5HOXwAYzOhWE6xl/h/Wd5y1dP4qowLAYPiyqwDAvqY6fwQAo9vqApIzE2CtkhcU6/wFAKNbtA9ZGGuCpPe3zl8AGKb2i2+F+9NUSGC90jrQ+45f59+z7zRBFjfDRDOoAMCO90hJg4irRad/6rKpAGCUu3JUY/8/VMcBaAIARrlrXWsCWCuE5LlmQAAokHUAghHs4XNhO2U86wQAHucATfDtQ8JJiVAli/4EAB6xDsDoH3SoCAA6vMEz/w+buS3pGaKyJwDw55ti3ljIIxCBCgACwDBzgCa4e6A5/hc2HjyUtKhOsBcAeIJ1AHeU/2Ezc58XAaAO0nE7qNEEuA+r7FA/+3oJACzr9e5KeUMPAbfOBodqA4B7WwBghaFPAxj9w+aKOlbXDgABAB3gKub/oc4RtdG/AMCahDz0Y4GNEGBzdgAgAKgC1NH5e/sfGShpGu5GuyIAeADVQPkfthkpOAMAAaC+kfBQn2cuPVT5nFDdEwDYMNXPm+EtmJk7/Y9MlHLvldShqu4JAKgCGP2jY+1ISYfqzHytBAAkZn9f6Ma8lM/pcC8BgG2Gw3cHZgxlzuzWASFkdu+VGAAOcm1S3yoBgO0NpVP0gIDtPR5VH2b6OVX3BADcOE+yP5jcO9f8UnMZq+pV9wQAVABUAChKUdNvk8mx8j8CQFW94jC2A9ofTI7mhX1e5X8EAFWA4nhAkKMvmmD/ELUI9yoAAgB7+Knyv58HBDm6KezzHbq3EQBq6x3rfjug0//I1W1hny/HNQA/+RoJAEjSRgiUFrxnhX3kHzIM9w7/EQDoQK3b5Mz/k7N5QZ91lNnn+eDrIwBgpPwU+4MRALqT2xqAK18fAYAuev+7bXK1ldOU/8ldEZW3yeQ4t9H/la29AgDdqq1c7vQ/VAC6+Wy5BQBTewIARswqABQt56rbw3MKxjkFE3v/BQC67i3r2g44VSKkkHuuBM8EewQAVYBSKP9TilkBn3GU0Wex+l8AQMdplEAVSqgC5LIDYOZgLwEAHefKB6qHBAX5nOnnmj34z7mcAujkPwGAaL1/HdsBzf1TklnOH24yOR73Hegf3NcqewIAQ34gbWDsElJQ6J4LrSuNfm8qC3sFAKKzxxaE7ttHHXBvGan9p8V/AgAJRiQzIxJI6lOGz4GbTALASXO3rseLfwQABjwigVrp3FYz+hcAGPKIZAtzl4+SZP7Sqr4PAbL4TwAg9TNJAICkcg0Bo57/fC/+EQBIPCKZF9yROgUQ39t6wojyvwCAEcnGzKfifqukTRzqJQBgRLKpW28Ko0SZrwPoi5P/BACMSDZ/jrpsuOeqEF77e6UZBAD6GZHMm/LK6Q4xomTWrxj9CwAYkew4YlABwP22v4fBf9zTZ7jwdRAAMCLZlNXCFC2jdQC/9d4Utv4JAGQ1EshZeFhcuVyoAlRB+V8AIIMRybwp4zwAIwZqMfR1AHbyCACoAmzF4j+qyd0D//vPfAUEAPLx2YgBEvX+d2+9G3I1S5gXAJDIjZhwz/m7IwCAEQO+07WbO/pXACCn4XX+R5QaMWAUXAfv8RAAcGNu/rms/qfC0B1GwbmMhFN+js+uvgCAAJDjwwmS5oBMPses0j8LAYDCk7kRA7X6NMDPoZonAKACoALAwIf/+WxtnSX8O1sDIACQ4cNolulHEwCo+tbL4N6fu88QAJDOIa1PA7r3Zy63AIAAAGRSAWhZa4MAMHAeApCy978rv+cQvI3OEQBUAIABdr7ufQSAgY9GjAIgvZ8yuPfD9ry5S4EAoAoApOt8bzLpfN37CAADpwoA9d93z5b8d9YAIQAMnIcApPcl8Z83WhFCnNaHADBQyoBQv9sV9/480p95qNkFADKW4VGdY1cFOvd5yb1/2waDWB31wWRyPNH0AgB5m2X0WZ65HAxALt/z2AOAFy61AEDecqoCKBsyBIeZ3OOxjyZWARAAyFxOCwEPJ5PjA5eEWi2+36MeAsB8y/++K2Ea4MRVFwBQAVAFgKZJ3SHerljrM0/w5z93yQUAMmUhICQb/Yfq1uvUt/iKe3+W4q/tygsA5G2W0WcxYqBWl4uf1FNc12v+99hVgDANINQLAGTMQkCIO/p/08NoOJT/172CeJ7gcwgAAgAZ+5TRZzloF0pBLZ3/yeIf73v4oz9kcu+r6gkAqACoAjDIzv+yhz86HPJzseH/X/QKgN09AgCZmk4/zpu8zgQXAND57+e8Pe0vl/A/9o0QAFAF2MQPLgc6/93v5UXnf5FZkzgVUAAgYzmtA1ABQOe/u7MMg7/tgAIAKgAbGZkzpNDO/7Lnzv9im/39G04TdMHLgQQABABVAKru/E96/AihMz/PuIlMAwgA5MhCQCi68w9OdxzRmwZAAMBCQCi0859ucOjPqspBCqYBBAAyZiEglNf5hw78tJAmMw0gAKACIACg8+/IecLFfPsa++YIAAgAmzxgPSzQ+a+5ZzvY8z9P+HlHjvoWAMhQuxBwntFHUgUgx87/TSadf3DWwe/4ogqAAEBuVQALAcmt8w+h9H0mH+dqmz3/GfFyIAGATH1WAYAnXWbwGcKoP/c9/+5rAYAC5TSi8KAgp9H/SSbfyVCB+NBO2QkACAB0xkJAWO5tJp8jdPwXLgcCAJ1qtxPlNLIwWiCHIBoOsBll8nFK2vaHAIAqwM68FIgcvMrkc8wWnf9VBYFq5CslAJCnnBYC2glADp1VLkfYnlXSrAKAAECmZioA8Ltc5v5D6f/G5UAAICYPGbgb/R9kMvqfNxb+IQAQW7vASAiApgmn/uVQhTq18A8BgKFVAewCoM/R/+ssMnmZJ/4hAFCoXBYCWgPAkEf/YdR/5lIgADDECgD0JYetf+cJTvybu9QIAPxOyZEha4/9HfX8MWYdvOpXAEAAQBUAttD31r9Q+j91GRAAGHQA8D4ABjj6P0/1sh/VPgQAlvmsCRigvuf+U5X+H7LFEAGA/CoAkHD0P178Y9zjR+ir9H9T+Z+HAMA2lAYZoL7n/s9Slf4f+ZT42aLiIACgCgBG/62rHt/0N/cNQADgsRyqACOXgQT6nPsP8/6nA7/PEQDITA4LAQUAYo/+w3fspKc/PlTZXvb592+nHVJVAea+cQIAZTAFwBD0Nfcf5sJfZjInnupeFwAEAErg/eMY/Uft/I96WvS3zCffBgQAHptpAip20tOfe5pZwE51nxtUCAAUxA1LraP/vl75Gzr/aU5t0YaRFFMRv/nmCQCUQ2mQWvXxyt8+t/vlUAWY+9oJAJRjpgkw+u+s88/5JT8pwr4AIABQinaFcp837TNXgRgZIPHoP5TYz4R9AUAAQBVgcyPNTwQpt/6FTu8o9yNwU6wDyGjXAwIAG7IOgHqG/mlf+ZvTXv+N+mijfwQAcqkAQMmj/5eFnacRM+wLAAIApUl8VCjEHP2PE47+Twt8q2bMCoBKogBAoZwHgNH/5s4z3u63KuzfRrzXDSIEAAolvVPD6H+c4I8K2/3eFdxU1wIAAgDfDA40AUb/a91kvte/z3tdFVEAoMgngnUAlD36HyUY/YcO7qiCe/0mxr1e0E4IBACWmGkCjP6XCp3baUWdXNf3utG/AEDhrAOg1NH/SeTO/6iy12dfR2gjBACMCqCq0f9ZZZ1/E+FthSoAAgCFPxTmjXUAlDX6D+f9TyJ3/le13vId/i6vARYA8FCApGK+8jds97uouO2ufX0QAHjIOgBKGv3HeuXvtILtfuvMMv1dCABU8FCAEkf/YT679s7/fsrP3D0CAL8/FG6FAArxKsLvvF/xP5RV7e51BAC+YW6QrEV65e/QOv8u73WVBAEAowJIIsbWv9Patvut09XbDJ0CKABQz0MhylGhkPHo/zTC3vhibnnfKgQAVAEoQddz/xcV7/XfhJ0/CAB8wzoAchz9j5tuX/oT9vqfCfsgAOChQN66nPsPU11D7/zvp/zM4SMA8PtDITwQzA1S6+j/66t9LV7745bf49/VhgIAFTI3SE66mvuv7dW+fd/rtgAKABgVQLTR/6jp7pW/R0Pb7udeRwBguyeCo0LJR1ed/6nOf+m9futeRwDgsZ80ARnoovx/PvDtfuvMNIEAAB4KZGMyOb5s9j/4J2z3e6c1V/qsCQQA+J1TAcmg8z/Z+2tc/6t9u+A+FwDgzw9QTUAPnf9JB51/6NR0/puxBkAAgD+JeSrggeZlSec/XvzjsoNfZbvfpilfOwkAmoAlD4ZZE++wj0MtzKPOP3wnfu7gV826etsdCAAMmQcpqTr/X5puKkPnWjQJVTwBgMo5FZCSOv+50X8yqngCACoAkEXnH1i4mv76IQBQI28Mo6DOP1CxSmusCQQAVAF26QBGmlbn33FgVQFI67kmEACoW6xRlQCg8++0/9e6KgAIAHTLQSHk3vkH11o4uQPrAAQAKmZVNR11/qOInf+tF/70FwI0gQCAKsC2Rpp1MJ1/6CR+jthZKP+DAIAAQIbeN3H3jTv8BwQAIvHKUHYd/Z80+7/cZ+Xofzr9ONfSIABQTgXge806iM7/MvIfY/S/3zUaawUBAFIHAKuHdf77umgPqwIEAGJoXxnqREBy6vxvjf5BAKDMKsBIk1bZ+b9P0PkHZ95ln4WxJijbd5qADcwFAFZ0/Adtxz9J8MfN7PsHAYB0vmgCVnT+4ZCfVOs6TrU6dMMUAJvovNxqBXIVnf8oced/btsfqACQltXWPO78Y57tv8x80fm/0/Kd2jeEeyOgCgDsxFZAnf82lP5BACC1SC8F8iKRMjv/2Gf7L3PhxVRZGmsCAQB28UwTFNn5h5H/KOEfO2/s+c/5OzHRCgIAbGukCYoT+8U+y5za85816wAEAAZgLgAMeqR30sR9sc8ySv8FfDU0gQCAACAA1Nv5H7aj/5RuFp3/mdaPqouXco3a7wcCAGzdsZD3Nbo/5S/1ok2r/uPr6v57rSkFANiWnQD562Pe/8yb/srKiZpAAIBtjTVB1qP/kyb9vH846/9C65cV5O0GEABgW99rgmw7/1GTft4/rPZ/qfWL9EITCACwDWsA8pX6sJ/Alr9ynbTrRRAAQAAoePT/podrE7b8TbV+2V8dTSAAwKYOjBqy9Dbxn2fLXx1eaQIBgDqNVAEGMfo/adKW/s3712Pcrh1BAKCiTmEUMQCMtXBWUi/mClv+5pq9GieaQACgsgxQUYdDf9f6satF53+lyavi3QACAG7qjR1aB5BJzz85Hif848JBP+b9QQBg4KNCq4eH5eu8vy1/IABgVGgaIA+pKgCn5v1BACB/KTrnidXDg2G/f90EOwEAo8LtQ4Cm7l3sF/DY71+/L5pAAKAC7ag81T59rxTtX8w5+RAujjQxCAAY/T828kaxfi1G57OYnb9Ff4PgNc4CAJVIvadXFSCDHNDx75vp/AdlrgkEAOqQekQ+TrwXnT+77vB3hYN+dP5DSo/TjyoAAgDF9/yT4zD338cBPW+1fq8P8KuORnFhq9+pFs3aTea/DwGAgYz+VQHysU/HHcLDj474LcJvHf++mSYVAKhDn2d6WwvQbxUgPMh32a531Xb+RoJl6LrD/qRJy/JPmoA/Df3vzub/754/xl/MHff+PThZ/ONyw1H/mQN+irzG/+OeVQGAb54LPgNtGf+v7ch+2YM9/Hfn7ahf51/oZe7s66LzL853moAlXmXwGV60HQ/9hoAwug9rAk7bg6FGD/7nGw/94l13FLavNWV5TAHw7bD77jCenzP4KLeLzuUvrghEv+fDdN8+O35CCPyrMFgeUwA8fBCErX+XmXycg/bzAHF92PPfP9f5CwCU3fmfLP7xS9PP3v+njFwZiGvReb9rdt/DHw57utCKZbIGQMf/prnbdpdjZxsqABaXQXzhRU1h6m+8xb9z4e2OAgBldvyH7Q2f8yj7mSsFSaoAoYR/1FYC3655LoRQ/iHiy6NIxCLA4Xb+uZX7l5mFs+RdMUj+jBi1IeD+Z9YGBZ2+CgCF39gldP5AfxWBeePNftWzCHB4ftb5A6ACMDwlLdqxtQgAAAAAAAAAAAAAAAAAAAAAAAAAAAAAAAAAAAAAAAAAAAAAAAAAAAAAAAAAAAAA+F8BBgAtI2C9XNe5LQAAAABJRU5ErkJggg==;" vertex="1" parent="1">
          <mxGeometry x="-100" y="310" width="91" height="91" as="geometry" />
        </mxCell>
      </root>
    </mxGraphModel>
  </diagram>
</mxfile>
